<?xml version="1.0" standalone="no"?><!DOCTYPE svg PUBLIC "-//W3C//DTD SVG 1.1//EN" "http://www.w3.org/Graphics/SVG/1.1/DTD/svg11.dtd"><svg t="1551487699719" class="icon" style="" viewBox="0 0 1024 1024" version="1.1" xmlns="http://www.w3.org/2000/svg" p-id="1183" xmlns:xlink="http://www.w3.org/1999/xlink" width="200" height="200"><defs><style type="text/css"></style></defs><path d="M856.4736 22.34368c-12.92288-2.12992-25.57952-1.78176-38.56384-1.78176H184.44288c-28.38528 0-56.75008 14.47936-74.21952 38.31808A123.6992 123.6992 0 0 0 85.7088 132.79232v758.9888c0 28.54912 9.64608 54.3744 26.39872 76.30848 17.18272 22.54848 45.34272 35.77856 72.41728 35.77856h634.28608c13.78304 0 26.97216 0.3072 40.6528-2.27328 21.01248-3.97312 41.53344-18.28864 54.51776-36.02432a124.06784 124.06784 0 0 0 24.51456-73.4208V134.06208c0-51.13856-31.98976-103.54688-82.0224-111.7184zM160.89088 936.32512c3.11296 2.39616 1.47456 1.20832 0 0z m718.09024-21.97504c1.35168-3.70688 0.69632-1.80224 0 0z m3.584-15.50336c-0.14336 0.2048-1.04448 6.38976-1.4336 8.11008a87.04 87.04 0 0 1-2.37568 7.96672l-0.34816 0.79872a86.38464 86.38464 0 0 1-2.94912 5.8368c-0.65536 1.24928-3.13344 4.93568-3.87072 6.18496a103.50592 103.50592 0 0 1-3.97312 4.48512c-0.9216 0.98304-3.95264 3.62496-5.07904 4.62848a81.7152 81.7152 0 0 1-6.16448 3.8912l-1.26976 0.69632-1.69984 0.69632a66.6624 66.6624 0 0 1-8.47872 2.37568 68.4032 68.4032 0 0 1-3.54304 0.18432c-0.53248 0.04096-1.08544 0.04096-1.65888 0.04096H184.44288l-1.59744-0.04096a52.4288 52.4288 0 0 1-3.60448-0.18432l-1.16736-0.28672a59.24864 59.24864 0 0 1-8.45824-2.53952 62.07488 62.07488 0 0 1-9.728-6.20544 74.09664 74.09664 0 0 1-4.38272-4.4032c-0.9216-1.00352-3.39968-4.28032-4.36224-5.46816a90.15296 90.15296 0 0 1-3.15392-5.46816c-0.69632-1.24928-2.47808-5.50912-3.072-6.81984a116.03968 116.03968 0 0 1-2.23232-8.02816c-0.38912-1.6384-0.67584-3.29728-0.98304-4.97664a90.5216 90.5216 0 0 1-0.34816-8.17152V132.28032c0-2.49856 0.12288-4.95616 0.28672-7.4752 0.1024-0.77824 0.26624-1.67936 0.36864-2.27328 0.4096-2.2528 0.9216-4.46464 1.51552-6.69696 0.36864-1.47456 2.08896-6.26688 2.43712-7.45472 0.88064-1.86368 1.82272-3.6864 2.80576-5.50912 0.67584-1.26976 3.33824-5.20192 3.93216-6.28736 1.59744-1.90464 3.25632-3.72736 4.97664-5.48864 0.86016-0.90112 1.82272-1.78176 2.78528-2.62144 2.33472-1.76128 4.85376-3.29728 7.35232-4.75136l1.31072-0.69632c0.57344-0.26624 1.2288-0.512 1.65888-0.69632 2.08896-0.75776 4.1984-1.37216 6.3488-1.86368 0.75776-0.04096 5.65248-0.73728 7.35232-0.73728h655.27808a54.272 54.272 0 0 1 4.64896 0.18432l1.7408 0.28672c2.8672 0.6144 5.67296 1.55648 8.3968 2.56 1.536 0.77824 2.99008 1.61792 4.44416 2.47808 1.18784 0.73728 4.56704 3.31776 5.69344 4.07552 1.37216 1.29024 2.70336 2.6624 3.9936 4.05504 0.94208 0.98304 3.50208 4.36224 4.42368 5.50912a94.1056 94.1056 0 0 1 5.632 10.58816c1.10592 3.1744 1.98656 6.41024 2.78528 9.68704 0.36864 1.6384 0.67584 3.2768 0.96256 4.9152 0.24576 2.74432 0.36864 5.48864 0.36864 8.23296v758.35392l0.02048 1.49504a122.0608 122.0608 0 0 1-0.3072 6.69696zM258.4576 599.79776H620.81024c15.1552 0 27.81184-12.84096 27.81184-28.20096 0-15.40096-12.65664-28.22144-27.81184-28.22144H258.4576c-15.17568 0-27.81184 12.82048-27.81184 28.22144 0 15.36 12.63616 28.20096 27.81184 28.20096z m507.26912 90.5216H258.4576c-15.17568 0-27.81184 12.84096-27.81184 28.20096 0 15.38048 12.63616 28.20096 27.81184 28.20096h507.26912c15.19616 0 27.8528-12.82048 27.8528-28.20096 0-15.36-12.65664-28.20096-27.8528-28.20096zM286.02368 386.37568c14.0288 0 27.9552-5.87776 37.888-15.93344a55.3984 55.3984 0 0 0 15.70816-38.42048c0-14.21312-5.79584-28.34432-15.70816-38.4a53.8624 53.8624 0 0 0-37.888-15.89248c-14.04928 0-27.97568 5.8368-37.888 15.89248a55.296 55.296 0 0 0-15.68768 38.4 55.296 55.296 0 0 0 15.68768 38.42048 53.82144 53.82144 0 0 0 37.888 15.93344z m217.41568 0c14.0288 0 27.9552-5.87776 37.888-15.93344a55.3984 55.3984 0 0 0 15.70816-38.42048c0-14.21312-5.79584-28.34432-15.70816-38.4a53.8624 53.8624 0 0 0-37.888-15.89248c-14.0288 0-27.97568 5.8368-37.888 15.89248a55.296 55.296 0 0 0-15.70816 38.4c0 14.2336 5.77536 28.3648 15.70816 38.42048a53.8624 53.8624 0 0 0 37.888 15.93344z m217.3952 0c14.0288 0 27.97568-5.87776 37.90848-15.93344a55.45984 55.45984 0 0 0 15.6672-38.42048c0-14.21312-5.77536-28.34432-15.6672-38.4a53.90336 53.90336 0 0 0-37.90848-15.89248 53.8624 53.8624 0 0 0-37.888 15.89248 55.37792 55.37792 0 0 0-15.68768 38.4c0 14.2336 5.77536 28.3648 15.68768 38.42048a53.90336 53.90336 0 0 0 37.888 15.93344z" p-id="1184"></path></svg>