<?xml version="1.0" standalone="no"?><!DOCTYPE svg PUBLIC "-//W3C//DTD SVG 1.1//EN" "http://www.w3.org/Graphics/SVG/1.1/DTD/svg11.dtd"><svg t="1553746418271" class="icon" style="" viewBox="0 0 1024 1024" version="1.1" xmlns="http://www.w3.org/2000/svg" p-id="8476" xmlns:xlink="http://www.w3.org/1999/xlink" width="32" height="32"><defs><style type="text/css"></style></defs><path d="M173.6 326.4v168.2l146.6-84.2-146.6-84z m521.8-100.6v168.4l145.4-84-145.4-84.4zM173.6 527.2v168.2l146.6-84.2-146.6-84z m521.8-100.4v168.2l145.4-84-145.4-84.2z m-347 0v168.2l145.2-84-145.2-84.2z m16 27.8l97.2 56.4-97.2 56.2v-112.6z m157.6-128.2v168.2l145.2-84.2-145.2-84z m0 200.8v168.2l145.2-84.2-145.2-84z m16 27.6l97.4 56.2-97.4 56.6v-112.8z m-189.6-329v168.4l145.2-84-145.2-84.4zM503 128l-145.4 84 145.4 84.2V128z m-16 140.4L389.6 212l97.4-56.2v112.6zM522 128v168.2l145.2-84.2L522 128z m16 27.8l97.4 56.2-97.4 56.4V155.8zM329.6 594.8v-168.4l-146.4 84.4 146.4 84z m365.8 200.8l145.4-84.2-145.4-84.2v168.4z m-365.8 0v-168.4l-146.4 84.2 146.4 84.2z m347-200.8v-168.2l-145 84.2 145 84z m-16-27.6l-97-56.2 97-56.4v112.6z m16-173v-168.4l-145 84.4 145 84z m173.8 301v-168.2l-145 84 145 84.2z m-145.2-284.8l145 84.2v-168.2l-145 84z m-28.6 385.2v-168.4l-145 84.2 145 84.2z m-16-27.8l-97.2-56.4 97.2-56.4v112.8z m-312.2-140.6v168.4l145.2-84.2-145.2-84.2z m16 27.8l97.4 56.4-97.4 56.4v-112.8zM522 896l145.2-84.2-145.2-84V896z m16-140.4l97.4 56.2-97.4 56.4v-112.6zM329.6 394.2v-168.4l-146.4 84.4 146.4 84zM503 896v-168.2l-145.4 84 145.4 84.2z m-16-27.8l-97.4-56.4 97.4-56.2v112.6z m16-173v-168.2l-145.4 84 145.4 84.2z m-16-27.6l-97.4-56.4 97.4-56.2v112.6z m16-173v-168.2l-145.4 84 145.4 84.2z" fill="#2c2c2c" p-id="8477"></path></svg>