<?xml version="1.0" standalone="no"?><!DOCTYPE svg PUBLIC "-//W3C//DTD SVG 1.1//EN" "http://www.w3.org/Graphics/SVG/1.1/DTD/svg11.dtd"><svg t="1553745575276" class="icon" style="" viewBox="0 0 1024 1024" version="1.1" xmlns="http://www.w3.org/2000/svg" p-id="2144" xmlns:xlink="http://www.w3.org/1999/xlink" width="32" height="32"><defs><style type="text/css"></style></defs><path d="M902.144 627.2l-94.208-49.152-249.856 153.6c-25.088 15.36-66.56 15.36-91.648 0l-249.856-153.6-94.72 49.152c-25.088 15.36-25.088 40.96 0 56.32L465.92 895.488c25.088 15.36 66.56 15.36 91.648 0l344.064-211.968c25.6-15.872 25.6-40.96 0.512-56.32z" p-id="2145"></path><path d="M121.856 365.056L465.92 576.512c25.088 15.36 66.56 15.36 91.648 0l344.064-211.968c25.088-15.36 25.088-40.96 0-56.32L558.08 128.512c-25.088-15.36-66.56-15.36-91.648 0L121.856 308.736c-25.088 15.872-25.088 40.448 0 56.32zM512 177.152l319.488 159.744c0.512-1.536 2.56 1.024 0 0l-287.744 181.248c-17.408 10.24-46.08 10.24-63.488 0L192.512 336.896 512 177.152z m390.144 290.816l-6.656-3.584-337.408 208.384c-25.088 15.36-66.56 15.36-91.648 0l-337.92-207.36-6.656 3.584c-25.088 15.36-25.088 40.96 0 56.32L465.92 736.768c25.088 15.36 66.56 15.36 91.648 0l344.064-211.968c25.6-15.872 25.6-40.96 0.512-56.832z" p-id="2146"></path></svg>