<?xml version="1.0" standalone="no"?><!DOCTYPE svg PUBLIC "-//W3C//DTD SVG 1.1//EN" "http://www.w3.org/Graphics/SVG/1.1/DTD/svg11.dtd"><svg t="1555578315695" class="icon" style="" viewBox="0 0 1024 1024" version="1.1" xmlns="http://www.w3.org/2000/svg" p-id="2019" xmlns:xlink="http://www.w3.org/1999/xlink" width="32" height="32"><defs><style type="text/css"></style></defs><path d="M747.736113 167.824838c7.96442-1.905772 14.705733-7.111089 18.517277-14.307512a973.223693 973.223693 0 0 0-1.052441-141.140902 32.426568 32.426568 0 0 0-27.932359-12.287962c-10.467524 4.408875-20.423049 5.233762-23.751039 16.38395a1189.144811 1189.144811 0 0 0 2.104883 140.116905c7.566199 9.671082 20.110161 14.079957 32.142124 11.235521z m246.584136 110.449441c0-57.912712 8.021309-133.404037-16.583061-167.707932-32.995455-45.795416-99.384585-43.718978-180.394115-42.95098 1.223107 60.64337 4.721763 132.892038-67.242461 118.612971-50.46029-9.983969-45.738527-58.310933-44.51542-118.612971H339.47425c1.023997 60.586482 5.74576 108.259225-44.543864 118.612971-12.799961 2.019549-25.884365-0.113777-37.375886-6.115537-35.441669-17.607057-31.089683-59.647818-30.037242-112.497434C150.148606 67.131813 83.645698 64.116711 50.280467 106.470359 18.678785 146.804458 30.710749 247.412151 30.710749 317.129271V885.760422a209.834026 209.834026 0 0 0 4.010654 64.42647c30.236352 77.93754 117.361419 65.450467 223.885538 65.450467h641.420263a109.510776 109.510776 0 0 0 88.006842-60.330482c9.614193-22.243488 6.286203-60.842481 6.286203-92.045941V278.274279z m-73.670886 642.273593c-16.099506 27.932359-134.655589 17.351058-182.328332 17.351058H283.410421c-41.557206 0-147.569327 8.988417-170.950589-8.163531-19.399052-14.222179-11.377743-114.033429-11.377743-150.328429V334.508773h822.696153V756.907483c0 29.781242 6.257759 147.455549-3.128879 163.640389zM729.04817 436.794683c-32.824789 17.351058-54.470945 49.094961-76.657543 76.714432-60.415815 68.152681-120.88852 136.333806-181.446557 204.514931a117594.719794 117594.719794 0 0 0-115.939201-131.896486c-12.572406-15.416842-39.822101-26.339475-57.11627-7.167978a50.830067 50.830067 0 0 0-3.98221 54.214946c41.016764 46.364303 82.11886 92.700161 123.277845 139.036019 11.519965 14.392845 26.168809 40.305655 46.620302 44.998974 28.814134 6.712868 67.214017-50.972289 79.786423-66.446019l216.546894-244.450809c10.581301-12.344851 13.084404-29.667465 6.456869-44.51542a42.382093 42.382093 0 0 0-37.546552-25.031034zM290.037956 167.910171a28.444358 28.444358 0 0 0 18.687943-14.307511A973.223693 973.223693 0 0 0 307.673458 12.461757a32.682567 32.682567 0 0 0-27.932359-12.287962c-10.467524 4.43732-20.423049 5.233762-23.921705 16.38395a1269.187233 1269.187233 0 0 0 2.104883 140.088461c7.594643 9.671082 20.110161 14.051513 32.142124 11.263965z" p-id="2020"></path></svg>