<?xml version="1.0" standalone="no"?><!DOCTYPE svg PUBLIC "-//W3C//DTD SVG 1.1//EN" "http://www.w3.org/Graphics/SVG/1.1/DTD/svg11.dtd"><svg t="1553922635857" class="icon" style="" viewBox="0 0 1024 1024" version="1.1" xmlns="http://www.w3.org/2000/svg" p-id="2009" xmlns:xlink="http://www.w3.org/1999/xlink" width="32" height="32"><defs><style type="text/css"></style></defs><path d="M132.26666667 244.55714285c-42.66666667 0-74.66666667-32-74.66666667-74.66666666s32-76.8 74.66666667-76.8h753.06666666c42.66666667 0 76.8 34.13333333 76.8 76.8s-34.13333333 74.66666667-76.8 74.66666666H132.26666667zM885.33333333 430.15714286c42.66666667 0 76.8 34.13333333 76.8 76.79999999s-34.13333333 74.66666667-76.8 74.66666667H132.26666667c-42.66666667 0-74.66666667-32-74.66666667-74.66666666s32-76.8 74.66666667-76.8h753.06666666zM885.33333333 769.35714285c42.66666667 0 76.8 32 76.8 74.66666668s-34.13333333 76.8-76.8 76.8H132.26666667c-42.66666667 0-74.66666667-34.13333333-74.66666667-76.8s32-74.66666667 74.66666667-74.66666668h753.06666666z" fill="#333333" p-id="2010"></path></svg>