<?xml version="1.0" standalone="no"?><!DOCTYPE svg PUBLIC "-//W3C//DTD SVG 1.1//EN" "http://www.w3.org/Graphics/SVG/1.1/DTD/svg11.dtd"><svg t="1553746359575" class="icon" style="" viewBox="0 0 1024 1024" version="1.1" xmlns="http://www.w3.org/2000/svg" p-id="8257" xmlns:xlink="http://www.w3.org/1999/xlink" width="32" height="32"><defs><style type="text/css"></style></defs><path d="M485.140984 8.72918c-38.274098 3.021639-116.500984 13.09377-110.121968 14.100984 4.36459 0.671475 25.851803-1.342951 48.34623-4.028853 22.158689-3.021639 47.674754-5.371803 56.068197-5.371803 8.72918 0 18.129836-1.678689 20.815737-3.357377 2.685902-1.678689 3.693115-3.021639 1.678689-2.685901-1.678689 0.335738-9.400656 1.007213-16.786885 1.34295zM540.537705 10.407869c8.393443 1.342951 45.996066 4.36459 83.934426 6.379016s79.569836 4.700328 92.327869 5.707541c13.09377 1.007213 22.494426 1.007213 21.487213-0.335737-2.014426-2.014426-114.15082-10.407869-179.283934-13.093771-22.494426-1.007213-28.537705-0.335738-18.465574 1.342951z" fill="#2c2c2c" p-id="8258"></path><path d="M401.206557 24.508852c-29.544918 3.693115-54.725246 8.393443-56.068196 10.407869-1.342951 2.014426-2.685902 37.266885-2.685902 77.891148v74.53377l-19.137049 2.350164c-33.238033 4.028852-125.901639 21.822951-132.952131 25.516066-6.379016 3.693115-6.379016 6.379016-5.036066 65.468852 1.678689 60.768525 1.678689 61.775738-5.371803 63.118689C118.179672 356.217705 64.797377 372.668852 42.638689 386.098361c-18.801311 11.75082-23.837377 13.09377-11.415082 3.357377 18.801311-14.772459 78.226885-35.252459 129.930491-44.988853l21.822951-4.028852-1.342951-60.768525c-1.007213-60.768525-1.007213-60.768525 6.714754-65.80459 9.736393-6.043279 67.483279-18.465574 123.215738-26.187541l27.530492-3.693115-0.671475-74.53377L337.416393 35.252459l-0.671475 72.855082c-0.671475 40.288525-2.350164 73.19082-3.693115 73.19082-8.393443 0.335738-56.068197 8.057705-94.678033 15.443934-64.125902 12.422295-61.104262 8.393443-59.761311 81.248525l1.007213 58.082623-8.393442 2.014426c-106.76459 24.84459-142.352787 40.288525-159.47541 69.833442-8.393443 14.100984-9.400656 18.801311-10.072131 53.046558-0.335738 23.165902 1.007213 44.653115 4.028852 56.068197 6.714754 26.523279 28.537705 68.82623 48.010492 92.999344l16.786885 20.815738-11.415082 15.108196c-27.86623 36.59541-23.501639 98.706885 12.422295 168.20459 18.801311 36.259672 58.418361 76.883934 91.320656 92.999345 43.310164 21.822951 84.605902 30.552131 134.295082 29.20918l30.552131-1.007213 21.822951 21.822951c46.331803 45.660328 103.742951 67.147541 179.283934 66.476065 16.786885 0 36.931148-1.342951 45.32459-2.685901 9.400656-1.678689-1.007213-2.014426-26.859016-1.007213-87.291803 3.357377-149.403279-17.794098-196.742295-67.147541L330.030164 931.672131h-41.631475c-40.624262-0.335738-83.934426-7.050492-96.692459-15.443934-4.700328-3.021639-4.36459-3.357377 0.671475-1.678689 30.216393 9.400656 56.068197 13.429508 94.678033 13.765246l43.981639 0.671476 19.808525 20.815737c45.996066 48.010492 111.464918 70.840656 192.377705 66.476066 85.948852-4.36459 158.803934-36.931148 222.929836-99.042623 43.981639-42.638689 64.797377-68.154754 106.76459-130.937705 32.902295-48.681967 36.259672-52.71082 45.996065-53.046557 32.23082-1.678689 60.768525-13.765246 77.891148-33.238033 19.137049-22.158689 21.822951-35.923934 7.721967-43.310164-20.48-10.407869-56.068197-12.422295-77.891147-4.028853-4.36459 1.678689-4.700328-1.342951-3.357377-18.801311 1.342951-15.779672 4.028852-25.180328 11.415081-36.259672 12.422295-18.801311 20.48-37.602623 25.851804-58.082623 2.014426-8.72918 4.700328-15.443934 5.371803-14.436722 5.371803 5.371803-25.180328 77.55541-35.923934 84.270164-2.014426 1.007213-3.357377 10.407869-3.357377 20.48v18.129836l9.400655-2.350163c5.036066-1.342951 15.779672-2.350164 24.173115-2.350164 16.11541 0 52.71082 10.407869 55.732459 15.443934 4.700328 7.38623-3.021639 26.859016-17.122623 42.302951-17.458361 19.137049-44.988852 32.902295-71.512131 35.252459-9.736393 1.007213-18.465574 2.014426-18.801311 2.685902-0.671475 0.671475-14.772459 21.822951-31.223607 46.667541-33.57377 50.696393-53.382295 76.212459-81.248525 105.421639-10.407869 10.743607-17.122623 19.137049-15.108196 18.465574 9.736393-3.357377 59.425574-64.125902 90.984918-111.464918 19.808525-29.20918 37.266885-54.05377 38.945573-55.060984 2.014426-1.007213 9.400656-2.685902 17.122623-3.357377 36.931148-3.021639 76.548197-30.216393 89.977705-61.104262 6.043279-14.436721 6.043279-15.108197 0.335738-20.48-14.436721-13.429508-55.732459-22.830164-75.876721-17.458361l-12.422295 3.357377v-13.765246c0-8.72918 2.685902-18.129836 7.050491-24.173115 13.09377-19.137049 26.187541-47.674754 31.559345-69.161967 7.38623-27.194754 7.38623-84.270164 0-137.316721-2.685902-21.151475-6.043279-47.339016-7.38623-58.082623l-2.014426-19.137049 16.786885-17.794099c22.830164-24.173115 31.895082-42.638689 33.909508-69.833442 1.007213-16.451148 0-24.508852-4.028852-31.895082-5.036066-8.393443-5.371803-8.72918-3.021639-1.342951 1.342951 4.700328 2.685902 19.137049 2.685901 31.895082 0 19.808525-1.678689 26.187541-9.400656 39.617049-11.415082 19.137049-27.530492 38.274098-37.266885 43.310164-3.693115 2.014426 0.671475-3.693115 10.072131-12.758033 28.873443-28.537705 40.624262-64.461639 31.559345-97.028196-5.036066-18.129836-8.057705-18.465574-35.252459-5.371804-18.801311 9.064918-37.266885 24.84459-44.317377 37.938361-2.685902 5.371803-4.700328 4.028852-16.11541-10.072131l-12.758033-15.779672 13.765246 13.429508c7.721967 7.050492 14.100984 11.415082 14.100983 9.736393 0-2.014426 5.707541-9.400656 12.758033-16.11541 12.422295-12.758033 28.873443-22.494426 50.696394-30.552131 6.714754-2.685902 9.400656-4.700328 6.043278-4.700328-11.079344-0.671475-42.302951 16.451148-57.746885 31.895082l-15.443934 14.772459-14.100984-13.429508c-15.443934-15.108197-35.252459-25.851803-52.71082-28.537705-11.415082-1.678689-11.415082-1.678689 1.678689 2.685902 16.11541 5.707541 42.974426 19.137049 41.295738 20.815738-0.671475 0.671475-10.072131-3.021639-20.815738-8.393443-24.508852-12.422295-35.588197-13.09377-35.923934-2.685902 0 7.38623-0.335738 7.38623-3.02164 1.007213-2.350164-6.043279-2.685902-5.707541-5.036065 3.02164-4.028852 15.443934 0.335738 57.07541 8.393442 74.869508 7.721967 18.129836 23.501639 35.923934 38.274099 43.645902l9.400655 5.036065-7.721967 8.393443c-8.057705 8.393443-28.537705 19.472787-47.003279 24.508852l-9.736393 3.02164V201.778361c0-183.984262 1.678689-172.904918-25.180328-176.262295-29.880656-3.693115-53.382295-5.371803-51.367869-3.693115 1.007213 1.007213 15.779672 3.357377 32.902295 5.371803 17.122623 1.678689 33.238033 4.700328 35.923935 6.714754 3.357377 3.021639 4.36459 34.916721 4.36459 169.883279v166.190164l9.400656-2.350164c5.036066-1.007213 17.122623-5.707541 26.859016-10.072131 9.400656-4.36459 17.458361-7.38623 17.458361-6.714754 0 2.685902-20.48 12.086557-39.281312 18.801311l-17.794098 6.043279V206.478689c0-110.457705-1.342951-169.883279-3.357377-171.22623-2.014426-1.342951-22.494426-3.693115-45.996066-5.371803-23.165902-1.678689-59.761311-4.700328-81.248524-6.714754-21.487213-2.014426-81.248525-4.028852-132.952131-4.700328-80.577049-1.007213-101.728525 0-147.724591 6.043278z m198.085246 0.671476c125.901639 8.057705 179.95541 12.758033 177.269508 15.108197-5.371803 4.36459-107.436066 18.465574-133.623606 18.465573-50.360656 0-273.62623-18.129836-273.62623-22.494426 0-1.342951 4.028852-2.685902 9.400656-3.021639 8.057705 0 137.316721-11.75082 141.681312-12.758033 1.007213 0 36.59541 2.014426 78.89836 4.700328z m-199.763934 20.144262c23.165902 2.685902 75.876721 7.050492 117.508197 10.072131 41.631475 3.021639 86.956066 6.714754 100.721311 7.721968l25.180328 2.350163-1.007213 83.934427c-0.671475 45.996066-2.014426 84.605902-2.685902 85.277377-2.685902 2.685902-277.319344-37.938361-284.034098-41.967213-3.357377-2.014426-3.693115-152.424918 0-152.424918 1.342951 0 21.151475 2.350164 44.317377 5.036065z m25.180328 164.175738c38.945574 6.043279 101.057049 15.443934 138.323934 20.815738 37.266885 5.036066 66.811803 10.743607 66.140328 12.086557-1.007213 1.342951-4.700328 2.685902-8.393443 2.685902-3.693115 0-35.588197 6.043279-70.504918 13.765245L486.819672 272.283279l-100.049836-20.144263c-54.725246-11.079344-116.836721-22.830164-137.652459-25.851803-20.48-3.357377-36.59541-7.050492-35.252459-8.393443 1.678689-1.007213 29.20918-6.379016 61.44-11.079344 32.23082-5.036066 61.104262-9.736393 63.790164-10.072131 2.685902-0.671475 7.38623-0.671475 10.072131 0 2.685902 0.671475 36.931148 6.379016 75.540984 12.758033z m567.060983-4.028853c6.714754 25.180328-3.021639 55.732459-26.859016 84.94164-20.815738 25.180328-21.151475 26.859016-13.093771 87.291803 6.379016 49.017705 6.379016 109.450492-0.335737 142.017049-14.436721 70.504918-66.811803 130.601967-150.074754 173.240656-48.681967 24.84459-75.205246 30.552131-140.002623 30.552131-48.681967 0-58.418361-1.007213-80.577049-7.721967-68.490492-21.487213-112.807869-61.44-137.65246-124.558689-7.050492-18.465574-7.050492-24.173115 0.671476-18.129836 20.144262 15.779672 88.634754 19.808525 134.63082 7.721968 32.23082-8.393443 71.847869-24.173115 89.641967-35.25246 21.151475-13.09377 15.779672-12.422295-12.422295 1.678689-72.519344 36.259672-150.74623 46.667541-200.771148 26.523279-19.472787-7.721967-20.144262-8.72918-24.508852-24.84459-5.707541-21.151475-3.021639-54.05377 5.707541-73.862296 7.050492-16.11541 8.393443-16.451148 28.873442-11.750819 11.079344 2.685902 23.837377 0.671475 77.219672-11.75082 58.754098-13.765246 169.547541-37.938361 235.016394-51.032131 15.108197-3.021639 29.544918-8.057705 32.566557-11.415082 3.021639-3.021639 10.743607-6.714754 16.786886-8.057705 29.544918-6.379016 59.089836-28.537705 72.855081-54.389508 3.693115-7.050492 3.021639-8.057705-9.736393-13.093771-28.537705-11.415082-47.339016-45.660328-48.010492-87.963278-0.671475-20.815738 0-22.494426 6.043279-21.487213 21.487213 3.357377 55.396721 30.216393 65.468852 52.039344l5.707541 12.422295 4.028853-13.765246c5.036066-16.451148 24.508852-36.59541 46.331803-48.010492 19.808525-10.407869 19.808525-10.407869 22.494426-1.342951z m-158.468196 34.580984c1.007213 14.772459 0.671475 23.165902-0.671476 18.465574-2.685902-8.393443-4.36459-49.353443-2.014426-46.667541 0.671475 0.671475 2.014426 13.429508 2.685902 28.201967z m-579.819017-8.393443c33.909508 5.707541 168.876066 31.559344 219.236722 42.302951l7.386229 1.342951v90.64918c0 53.718033-1.342951 90.64918-3.021639 90.649181-5.036066 0-104.750164-22.158689-171.561968-38.274099-34.245246-8.393443-72.183607-16.786885-84.605901-19.137049l-22.830164-4.028852V308.542951c0-80.577049 0.335738-86.28459 6.043279-84.94164 3.021639 0.671475 25.516066 4.36459 49.353442 8.057705z m601.30623 69.497705c9.064918 12.086557 18.129836 17.794098 32.566557 20.815738l9.064918 2.014426-10.407869 12.422295c-5.707541 7.050492-12.086557 12.758033-14.100983 12.758033s1.342951-5.036066 7.386229-11.415082l10.743607-11.079344-8.393443-2.350164c-17.458361-4.36459-45.996066-37.602623-45.660328-53.046557 0.335738-2.350164 2.685902 1.007213 5.371804 7.386229s8.72918 16.451148 13.429508 22.494426z m115.49377 176.598033c0.335738 21.822951-0.335738 40.624262-1.342951 41.631476-1.007213 1.007213-1.678689-15.108197-1.678688-36.259673 0-21.151475-3.021639-61.775738-7.050492-90.313442-3.693115-28.537705-6.379016-56.739672-6.379016-62.111476 1.007213-23.837377 16.11541 111.12918 16.451147 147.053115zM191.370492 376.02623c0 26.859016 0 26.859016 33.238033 33.57377 21.151475 4.36459 21.151475 4.36459 12.086557 9.064918-8.057705 4.36459-9.736393 4.36459-16.11541-1.342951-7.38623-6.043279-7.38623-6.043279-1.342951 1.007213 5.371803 6.714754 5.371803 7.38623-1.342951 13.429509-12.086557 11.079344-20.48 31.895082-22.830163 56.403934L193.04918 512l-28.537705 7.38623c-36.931148 9.736393-95.349508 9.400656-124.22295-1.007214-16.451148-6.043279-18.801311-8.057705-22.494427-20.144262-2.014426-7.050492-4.028852-22.158689-4.028852-33.238033C13.09377 425.379672 25.180328 402.885246 53.718033 388.784262c27.194754-13.429508 104.750164-34.916721 130.266229-35.923934 7.050492-0.335738 7.38623 1.007213 7.38623 23.165902zM18.129836 407.921311c-3.021639 4.36459-7.38623 14.772459-9.736393 22.494427-2.685902 8.057705-4.700328 11.75082-4.700328 8.393442-0.335738-6.714754 8.057705-28.201967 13.429508-34.916721 6.379016-7.38623 7.050492-5.036066 1.007213 4.028852z m283.026885 18.801312c23.501639 5.707541 46.331803 11.75082 50.696394 13.429508 4.700328 1.678689 22.158689 6.043279 38.945574 9.736394 16.786885 3.693115 33.909508 7.38623 37.93836 8.393442l7.38623 1.678689-6.714754 11.750819c-4.700328 8.057705-7.050492 18.801311-8.057705 35.923935l-1.007213 24.508852-29.544918 11.079345c-65.133115 24.84459-125.230164 27.530492-170.219017 8.393442-15.108197-6.379016-20.144262-20.815738-20.144262-55.732459 0-18.465574 2.014426-26.187541 9.736393-41.967213 8.393443-16.11541 12.758033-20.48 28.201967-28.201967 10.072131-5.036066 18.801311-9.400656 19.472787-9.400656 0.335738 0 20.144262 4.700328 43.310164 10.407869zM20.48 538.859016c10.072131 27.194754 24.173115 51.703607 39.952787 69.833443 7.38623 8.393443 13.429508 16.451148 13.429508 17.794098 0 1.342951-5.371803-3.357377-11.75082-10.743606-26.859016-29.880656-53.382295-86.620328-57.075409-120.865574-1.678689-16.11541-1.678689-16.11541 3.021639 3.693115 2.685902 11.079344 8.057705 29.20918 12.422295 40.288524z m24.84459-14.436721c27.530492 10.407869 82.591475 10.407869 120.529836 0 14.772459-3.693115 27.86623-6.379016 29.209181-5.707541 1.342951 1.007213 3.357377 8.72918 4.700327 17.458361 5.036066 35.252459 29.20918 84.270164 56.068197 113.479344 20.48 22.494426 18.801311 23.837377-26.187541 20.48-68.154754-5.036066-113.815082-23.837377-152.760656-62.447213-19.472787-19.472787-28.537705-31.895082-39.281311-53.718033-12.422295-25.180328-16.451148-36.931148-13.093771-36.931147 0.335738 0 10.072131 3.357377 20.815738 7.386229z m379.383607 23.501639c9.400656 48.010492 32.566557 93.67082 63.454426 125.90164 12.758033 13.429508 22.158689 24.508852 21.487213 24.508852-1.007213 0-10.072131 1.678689-19.808525 3.357377-28.201967 5.707541-88.634754 4.700328-118.851147-1.678688-15.108197-3.021639-39.952787-11.75082-57.411148-20.144263-40.288525-19.472787-68.154754-48.34623-89.977705-92.663606-14.100984-28.873443-16.786885-41.295738-7.721967-33.909508 2.350164 1.678689 12.422295 6.043279 22.494426 9.400655 39.281311 12.758033 113.143607 4.700328 164.511476-18.465573 19.808525-8.72918 19.137049-8.72918 21.822951 3.693114z m489.505573 101.728525c-1.007213 7.38623-3.357377 15.443934-5.371803 17.458361-4.700328 6.043279-1.342951 5.371803 14.772459-3.02164 7.721967-4.028852 21.822951-7.721967 31.223607-8.393442 18.465574-1.342951 49.353443 5.371803 51.367869 11.415082 0.671475 1.678689-5.707541 11.079344-13.765246 20.144262-17.794098 19.808525-38.274098 29.544918-68.490492 33.238033-24.173115 2.685902-19.137049-2.350164-68.154754 66.811803-71.176393 100.385574-120.194098 147.388852-189.356066 181.969836-48.34623 24.173115-89.977705 32.566557-150.074754 30.216394-73.862295-2.685902-118.179672-19.808525-158.803934-60.768525-22.830164-23.165902-45.32459-60.097049-50.696394-83.262951l-2.014426-9.400656 14.772459 6.714754c52.039344 22.830164 146.045902 9.064918 215.879344-31.559344 24.508852-14.436721 16.451148-12.758033-16.786885 3.02164-51.703607 25.180328-83.262951 32.902295-134.295082 33.238032-37.938361 0-46.331803-1.007213-62.782951-7.386229-17.122623-7.050492-19.808525-9.400656-22.830164-20.144262-1.678689-6.714754-3.357377-23.837377-3.357377-37.938361 0-21.487213 1.678689-28.873443 9.400656-43.645902 7.721967-15.779672 11.75082-19.472787 29.20918-27.866229 19.808525-9.736393 19.808525-9.736393 47.339017-5.371804 31.223607 5.036066 96.020984 3.021639 125.901639-3.693114 18.129836-4.028852 20.144262-3.693115 38.945574 4.700328 38.274098 17.122623 58.754098 20.815738 115.158033 20.815737 43.310164-0.335738 56.739672-1.678689 80.577049-8.057705 15.443934-4.028852 31.223607-9.064918 35.252459-11.415082 3.693115-2.014426 18.801311-4.028852 33.909508-4.36459 25.516066-0.671475 51.703607-7.721967 51.703607-13.765246 0-1.678689-2.350164-6.379016-5.707541-10.743606-5.371803-8.057705-5.036066-8.393443 7.721967-18.129836 7.050492-5.707541 20.815738-18.129836 29.880656-27.530492 18.801311-18.801311 22.830164-17.458361 19.472786 6.714754z m-840.687213-12.086557c-21.151475 16.451148-29.880656 55.732459-22.158688 99.37836 2.685902 14.772459 4.36459 27.530492 3.693115 28.201968-3.357377 3.693115-9.064918-32.566557-9.400656-58.418361-0.335738-25.516066 1.007213-32.566557 7.386229-45.32459 8.393443-15.779672 24.173115-34.580984 26.859017-31.895082 1.007213 1.007213-2.014426 4.36459-6.379017 8.057705z m58.082623 21.82295c35.588197 16.451148 67.819016 22.494426 116.836722 22.830164 37.938361 0 43.310164 0.671475 58.41836 8.393443 9.400656 4.700328 22.158689 10.407869 28.873443 12.758033l11.75082 4.028852-13.429509 7.050492c-19.808525 10.407869-26.859016 17.458361-35.588196 34.245246-15.779672 30.216393-8.72918 93.67082 15.779672 141.681311 4.36459 8.72918 8.057705 17.458361 8.057705 19.472787 0 5.036066-58.754098 4.36459-87.963279-1.34295-54.05377-10.407869-100.385574-35.923934-127.580328-70.169181C93.67082 821.885902 67.147541 771.860984 67.147541 763.803279c0-2.350164 8.057705-1.007213 22.830164 3.693114 42.974426 14.772459 104.078689 9.400656 167.533115-15.443934 22.830164-8.72918 60.768525-30.216393 54.05377-30.216393-1.342951 0-12.086557 5.036066-23.501639 11.415082-28.201967 15.443934-75.540984 30.887869-109.78623 35.923934-33.909508 4.700328-65.468852 2.350164-93.335082-7.38623-20.48-7.38623-20.815738-7.721967-24.84459-24.173114-6.043279-25.851803-2.350164-62.447213 8.393443-80.912787 11.75082-20.48 17.794098-23.501639 29.544918-15.108197 5.036066 3.693115 20.144262 11.75082 33.57377 17.794098z m719.150164 35.252459c5.371803 5.707541 5.036066 6.379016-5.036065 8.393443-5.707541 1.007213-15.443934 2.014426-21.151476 2.014426H814.163934l13.429509-8.393442c16.11541-10.072131 16.11541-10.072131 23.165901-2.014427z m-758.767213 142.352787c16.451148 24.508852 40.96 46.331803 70.504918 63.118689 28.537705 15.779672 26.523279 17.458361-2.685901 2.350164-32.23082-17.122623-67.483279-55.060984-86.956066-92.663607-8.72918-17.122623-15.779672-33.909508-15.779672-36.931147 0-3.021639 5.036066 5.707541 11.079344 19.472787 6.043279 14.100984 16.786885 33.909508 23.837377 44.653114z" fill="#2c2c2c" p-id="8259"></path><path d="M731.908197 477.419016c-28.537705 10.407869-43.310164 50.024918-26.523279 71.176394 28.201967 35.923934 93.67082 15.108197 93.67082-29.880656 0-22.158689-20.815738-45.996066-39.281312-44.988852-3.357377 0-1.342951 1.678689 4.028853 3.357377 16.11541 4.700328 28.873443 20.144262 30.887869 37.602623 1.678689 13.429508 0.671475 16.11541-10.743607 28.873442-15.443934 16.786885-32.23082 22.494426-52.375082 17.122623-18.465574-5.036066-29.880656-17.794098-29.880656-33.238033v-12.086557l6.714754 10.743607c5.707541 9.400656 8.393443 11.079344 20.144263 11.079344 16.451148 0 32.566557-13.09377 35.588196-29.20918 1.678689-8.72918 0.335738-12.086557-6.379016-18.465574-15.779672-14.436721-17.458361-15.108197-25.851803-12.086558zM592.912787 756.417049c-14.436721 8.057705-28.873443 30.887869-28.873443 45.660328 0 30.216393 40.96 50.696393 71.512131 35.252459 25.516066-13.09377 35.588197-31.559344 29.209181-54.725246-4.028852-15.108197-24.173115-34.245246-35.252459-33.57377-6.714754 0.335738-6.714754 0.335738 0 2.014426 21.822951 5.707541 37.602623 31.223607 31.559344 52.375082-3.693115 14.100984-18.465574 27.530492-35.923934 32.902295-26.859016 7.721967-57.746885-11.079344-57.746886-34.916721 0.335738-10.072131 0.335738-10.407869 5.036066-4.028853 9.736393 13.429508 12.086557 15.108197 23.837377 15.108197 15.779672 0 34.916721-18.129836 34.916721-32.566557 0-9.736393-11.75082-24.508852-19.137049-24.508853-2.014426 0-4.36459-1.342951-5.036066-3.357377-0.335738-1.678689-7.050492 0.335738-14.100983 4.36459zM760.110164 926.971803c-31.895082 32.902295-86.620328 64.125902-140.674098 80.577049-16.451148 5.036066-27.86623 9.400656-24.844591 9.400656 16.11541 0.671475 75.540984-22.494426 108.779017-42.638688 31.895082-19.137049 79.234098-58.754098 74.869508-62.782951-0.671475-1.007213-8.72918 6.043279-18.129836 15.443934z" fill="#2c2c2c" p-id="8260"></path></svg>