<?xml version="1.0" standalone="no"?><!DOCTYPE svg PUBLIC "-//W3C//DTD SVG 1.1//EN" "http://www.w3.org/Graphics/SVG/1.1/DTD/svg11.dtd"><svg t="1551489010582" class="icon" style="" viewBox="0 0 1024 1024" version="1.1" xmlns="http://www.w3.org/2000/svg" p-id="17914" xmlns:xlink="http://www.w3.org/1999/xlink" width="200" height="200"><defs><style type="text/css"></style></defs><path d="M896 602.208 896 424.96c39.328-37.888 63.968-90.944 63.968-149.728 0-114.688-93.312-208-208-208-57.216 0-109.088 23.232-146.752 60.736l-183.424 0c-37.888-39.328-90.912-63.936-149.696-63.936-114.688 0-208 93.312-208 208 0 58.752 24.608 111.808 63.904 149.664l0 180.576c-39.328 37.888-63.904 90.912-63.904 149.664 0 114.688 93.312 208 208 208 58.752 0 111.808-24.64 149.696-63.936l180.512 0c37.888 39.328 90.912 63.936 149.696 63.936 114.688 0 208-93.312 208-208C959.968 693.152 935.328 640.096 896 602.208zM751.968 131.264c79.392 0 144 64.608 144 144s-64.608 144-144 144-144-64.608-144-144S672.576 131.264 751.968 131.264zM272.096 128.064c79.392 0 144 64.608 144 144s-64.608 144-144 144-144-64.608-144-144S192.672 128.064 272.096 128.064zM272.096 895.936c-79.392 0-144-64.608-144-144s64.608-144 144-144 144 64.608 144 144S351.488 895.936 272.096 895.936zM464.032 832c10.304-24.672 16.064-51.68 16.064-80.064 0-114.688-93.312-208-208-208-28.384 0-55.424 5.76-80.096 16.096L192 464c24.672 10.336 51.712 16.064 80.096 16.064 114.688 0 208-93.312 208-208 0-28.352-5.76-55.392-16.064-80.064l97.44 0c-11.2 25.504-17.504 53.632-17.504 83.264 0 114.688 93.312 208 208 208 28.352 0 55.36-5.76 80.032-16.064l0 92.8c-24.672-10.304-51.68-16.064-80.032-16.064-114.688 0-208 93.312-208 208 0 28.384 5.76 55.392 16.064 80.064L464.032 832zM751.968 895.936c-79.392 0-144-64.608-144-144s64.608-144 144-144 144 64.608 144 144S831.36 895.936 751.968 895.936z" p-id="17915"></path></svg>