<?xml version="1.0" standalone="no"?><!DOCTYPE svg PUBLIC "-//W3C//DTD SVG 1.1//EN" "http://www.w3.org/Graphics/SVG/1.1/DTD/svg11.dtd"><svg t="1551488148535" class="icon" style="" viewBox="0 0 1024 1024" version="1.1" xmlns="http://www.w3.org/2000/svg" p-id="6442" xmlns:xlink="http://www.w3.org/1999/xlink" width="200" height="200"><defs><style type="text/css"></style></defs><path d="M170.666667 682.666667c12.8 0 21.333333-8.533333 21.333333-21.333333l0-149.333333 298.666667 0 0 149.333333c0 12.8 8.533333 21.333333 21.333333 21.333333s21.333333-8.533333 21.333333-21.333333l0-149.333333 298.666667 0 0 149.333333c0 12.8 8.533333 21.333333 21.333333 21.333333 12.8 0 21.333333-8.533333 21.333333-21.333333l0-170.666667c0-12.8-8.533333-21.333333-21.333333-21.333333L533.333333 469.333333l0-106.666667c0-12.8-8.533333-21.333333-21.333333-21.333333s-21.333333 8.533333-21.333333 21.333333l0 106.666667L170.666667 469.333333c-12.8 0-21.333333 8.533333-21.333333 21.333333l0 170.666667C149.333333 674.133333 157.866667 682.666667 170.666667 682.666667zM469.333333 298.666667l85.333333 0c46.933333 0 85.333333-38.4 85.333333-85.333333L640 128c0-46.933333-38.4-85.333333-85.333333-85.333333l-85.333333 0c-46.933333 0-85.333333 38.4-85.333333 85.333333l0 85.333333C384 260.266667 422.4 298.666667 469.333333 298.666667zM426.666667 128c0-23.466667 19.2-42.666667 42.666667-42.666667l85.333333 0c23.466667 0 42.666667 19.2 42.666667 42.666667l0 85.333333c0 23.466667-19.2 42.666667-42.666667 42.666667l-85.333333 0c-23.466667 0-42.666667-19.2-42.666667-42.666667L426.666667 128zM554.666667 725.333333l-85.333333 0c-46.933333 0-85.333333 38.4-85.333333 85.333333l0 85.333333c0 46.933333 38.4 85.333333 85.333333 85.333333l85.333333 0c46.933333 0 85.333333-38.4 85.333333-85.333333l0-85.333333C640 763.733333 601.6 725.333333 554.666667 725.333333zM597.333333 896c0 23.466667-19.2 42.666667-42.666667 42.666667l-85.333333 0c-23.466667 0-42.666667-19.2-42.666667-42.666667l0-85.333333c0-23.466667 19.2-42.666667 42.666667-42.666667l85.333333 0c23.466667 0 42.666667 19.2 42.666667 42.666667L597.333333 896zM896 725.333333l-85.333333 0c-46.933333 0-85.333333 38.4-85.333333 85.333333l0 85.333333c0 46.933333 38.4 85.333333 85.333333 85.333333l85.333333 0c46.933333 0 85.333333-38.4 85.333333-85.333333l0-85.333333C981.333333 763.733333 942.933333 725.333333 896 725.333333zM938.666667 896c0 23.466667-19.2 42.666667-42.666667 42.666667l-85.333333 0c-23.466667 0-42.666667-19.2-42.666667-42.666667l0-85.333333c0-23.466667 19.2-42.666667 42.666667-42.666667l85.333333 0c23.466667 0 42.666667 19.2 42.666667 42.666667L938.666667 896zM213.333333 725.333333 128 725.333333c-46.933333 0-85.333333 38.4-85.333333 85.333333l0 85.333333c0 46.933333 38.4 85.333333 85.333333 85.333333l85.333333 0c46.933333 0 85.333333-38.4 85.333333-85.333333l0-85.333333C298.666667 763.733333 260.266667 725.333333 213.333333 725.333333zM256 896c0 23.466667-19.2 42.666667-42.666667 42.666667L128 938.666667c-23.466667 0-42.666667-19.2-42.666667-42.666667l0-85.333333c0-23.466667 19.2-42.666667 42.666667-42.666667l85.333333 0c23.466667 0 42.666667 19.2 42.666667 42.666667L256 896z" p-id="6443"></path></svg>