<?xml version="1.0" standalone="no"?><!DOCTYPE svg PUBLIC "-//W3C//DTD SVG 1.1//EN" "http://www.w3.org/Graphics/SVG/1.1/DTD/svg11.dtd"><svg t="1551488912564" class="icon" style="" viewBox="0 0 1024 1024" version="1.1" xmlns="http://www.w3.org/2000/svg" p-id="13938" xmlns:xlink="http://www.w3.org/1999/xlink" width="200" height="200"><defs><style type="text/css"></style></defs><path d="M378.383801 871.793668a35.215372 35.215372 0 0 0 24.315963-59.473753c-14.272056-13.943017-93.027479-72.158197-113.584175-95.051068-9.542124-10.627951-22.46512-15.83499-27.943615-27.77087-12.593958-27.466509-21.420422-66.66325-5.445591-94.812514 2.895541-5.091875 4.746384-2.805055 2.541824 7.789992-12.544602 60.066023 26.726172 109.1257 35.371665 83.962462 5.972053-17.373246 0.435976-48.475633 3.627652-73.178217 5.65124-43.704571 45.596544-127.609452 63.142536-132.405192-27.063437-49.915178 31.735787-88.988529 31.020127-132.800037-0.46888-28.486529 25.130334 35.026174 50.861164 48.500311 28.733308 15.037071 60.321028-28.338462 105.144332-50.351154 12.684444-6.227058 28.95541-13.383651 27.861355-18.689401-5.26462-25.615666-58.88971 31.595946-106.773073 33.529048-21.864625 0.871953-29.967204-4.269278-38.415273-12.396535-25.525181-24.562742 2.599406-4.063629 40.545799-10.899408 16.863236-3.043608 22.530928-5.840438 40.430636-13.03816 17.899708-7.205949 38.349466-17.866804 58.601801-23.345299 14.09931-3.816849 12.922997-14.362541 7.444501-17.52954-3.158772-1.826165-7.831122-1.65342-11.541034 4.729932-8.686623 14.963037-49.545009 23.60853-62.29526 27.491188-16.377904 4.984937-34.491487 9.649061-58.544219 8.670171-36.556205-1.472448-28.034101-18.162939-54.184455-33.093072-7.666603-4.376215-5.601885-15.867894 4.59009-26.018739 5.330428-5.322202 19.964426-8.32468 27.21973-20.416854 1.02002-1.69455 10.36472-11.434096 17.694059-16.468389 2.533598-1.752131 2.755699-46.188814-20.145397-47.101897-19.454416-0.781467-24.990493 14.239152-24.167896 29.202189 0.814371 14.954811 8.777109 27.293764 14.074632 27.236182 10.208427-0.106938 0.649852 11.12151-4.943807 12.931223-8.497426 2.755699-20.145397-33.306947-18.804564-50.614385 1.398415-18.031323 10.825375-49.97276 33.751149-49.347586 20.638955 0.559366 35.601992 26.331326 34.845203 70.776234-0.131615 7.534987 33.471466-3.594748 44.683462 8.201291 8.012093 8.439844-27.474735-78.747198 51.552145-84.752155 20.828153 3.973143 40.817256 10.866505 49.133711 58.527767-3.076512 4.960259 5.18236 38.209624-7.666603 42.158089-15.678696 4.820418-25.360661-0.699207-16.295644-15.571759 6.20238-14.938359 0.139841-52.934108-31.595945-50.647289-31.744013 2.278593-27.532317 58.363248-18.829242 59.473754 8.703075 1.10228 30.617055 16.591779 45.917357 19.561353 50.219539 9.731321 13.326069 38.398822 19.841036 73.087731 7.362242 39.188515 33.282269 28.840246 56.586438 132.602615 4.861547 6.317544 24.15967 12.306049 42.964235 92.023911 16.912592 71.722221-7.033203 123.883088 33.635985 119.597358 9.163729-0.962438 22.54738-3.512489 28.371366-23.830631 15.218042-53.11508-7.625473-116.413908-30.691089-159.131363-13.433007-24.900007-26.084547-41.861954-32.764033-47.68594 26.430037 15.555307 60.222316 65.240157 68.020535 102.133626 10.241331 48.450955 17.554217 68.966521 2.056492 120.20608 8.941628 4.450249 31.192873 13.860757 31.192873 24.439353-23.18078-18.97731-94.146211-22.341731-95.972376 23.024486-12.1004 0.238553-21.255903 1.225669-29.045895 10.438754-28.527659 33.693568-2.04004 101.401515-4.927356 137.710941-2.55005 31.949662-11.442322 63.594964-16.460163 95.692694-16.986625-0.641626-15.32498-13.029934-9.879388-30.386729 4.812192-15.32498 12.561054-34.52439 13.071064-52.934108 0.460654-16.665812-1.365511-27.071663-5.585433-29.654617-4.228148-2.59118-10.833601 2.656988-19.964426 17.290986-19.48732 31.250455-61.694765 44.996048-101.113606 49.906952-39.410616 4.919129-76.04908 1.02002-95.45414-20.622503-6.630131-7.403372-17.636477 2.015362-18.944406 3.981369-1.752131 2.63231 6.424482 7.748862 12.577506 19.001987 8.99921 16.435485 17.554217 41.376622-3.759268 52.761363 0.238553-57.869689-18.154713-61.258788-36.951051-96.622228z m-14.091084-1.53003c14.123988 22.136082 63.891098 115.352758-23.353525 127.453158-29.177511 4.047177-76.164244-16.904366-121.678528-27.992971-40.899516-9.961648-82.432432-15.859668-105.670794-22.366409-13.992373-3.915561-19.841036-8.91695-21.058479-14.749162-3.22458-15.473047 16.994851-37.173152 18.014871-55.484158 1.028246-18.319232-6.71239-27.836678-13.046386-42.783263-6.350448-14.979489-7.995642-26.19971-2.920219-32.624192 3.948465-4.993163 11.97701-7.082559 25.031622-5.815759 16.550649 1.620516 36.531527-1.752131 47.274642-8.275325 18.088905-10.989894 26.594557-33.50437 18.459074-60.625389 0 26.545201-8.744205 36.597334-30.658185 48.730638-20.647181 11.442322-52.531036 2.188108-67.181486 14.847874-17.628251 15.234494 6.292866 54.56285 4.335085 83.427774-1.505352 22.177211-24.75194 47.17593-14.387219 69.418949 10.430528 22.382861 59.062455 24.825973 109.775552 35.371665 72.075937 15.020619 114.110637 41.146295 147.409358 42.380191 48.582571 1.793261 56.027072-47.866912 132.314705-48.533215 22.243019-1.168088 44.008932-1.850843 65.741942-2.130526 24.636776-0.304361 49.240648-0.106938 74.502598 0.501784 50.762453 1.217443 33.306947 27.598125 66.243725 44.453135 27.787322 14.214474 77.74363 8.604363 89.704188-2.747474 16.172254-15.357883 59.605369-52.317161 92.871186-69.007651 41.48356-20.819927 138.870803-56.635794 68.168603-100.323913-16.476615-10.183749-55.434803-20.943316-58.716965-95.413011-14.749162 13.046386-13.046386 82.440658 28.124587 96.21093 45.983165 15.374335 74.708247 41.129843-10.776019 70.241546-56.594664 19.273445-66.219048 25.212594-111.017673 62.344616-45.333313 37.576225-112.621737 22.654318-100.866827-56.471275 6.120121-41.220329 9.640835-75.284065-0.658078-111.108158-5.026067-17.504861-7.534987-39.95353-4.096532-55.698034 6.679487-30.617055 23.328847-39.83014 39.640943-10.438754 10.241331 18.450848 13.827853 40.019337 50.490995 41.771469 57.598232 2.747474 68.999425-55.418351 87.409143-58.067113 12.281371-1.760357 24.54629-36.367007 15.20159-92.336498-10.01923-59.926182-45.432025-154.541273-90.839371-202.523348-37.740744-39.879496-61.522019-74.839863-76.485057-124.746814-12.56928-41.927762-19.594257-82.736793-17.003077-121.752562 3.364421-50.548577-24.793069-120.897061-69.616373-153.998359C576.917554 10.682819 532.925074-0.414013 493.094934 0.021963c-22.333505 0.238553-43.350855 3.487811-59.506657 12.215564-66.474053 35.931031-75.761171 87.261075-74.765829 145.846424 0.929534 55.03173 2.813281 117.828775 9.089695 177.565759-7.436276 27.433605-46.131232 79.429953-70.916076 111.075255-33.323399 32.772259-50.145505 96.112218-71.713994 151.456534-11.499904 29.498324-30.87206 42.824393-32.500802 80.754334-0.452428 10.6115-0.090486 38.053331 10.093263 30.205757 38.982865-30.008334 87.762859 45.654126 161.418183 161.122048zM566.56106 77.049934c-2.097622 6.251736-10.743115 11.458774-5.256394 15.843215 5.494947 4.376215 8.637267-6.120121 19.684743-10.052133 2.854411-1.02002 16.131125 0.42775 18.574237-5.85689 1.069376-2.739248-6.844006-5.865116-11.557486-10.356495-4.71348-4.474927-9.336474-8.472748-13.770272-8.184838-11.442322 0.723885-5.81576 13.062838-7.674828 18.607141zM451.504436 234.815786c-18.220521-1.357285-19.470868 11.763135-13.433006 11.54926 6.153025-0.213875 2.369079-10.381172 13.433006-11.54926z m-31.258681-33.512596c2.155204-0.46888 5.215264 3.18345 4.269278 8.308228-1.324381 7.107237-0.748563 11.565712 4.20347 11.59039 0.814371 0 1.69455-0.148067 2.007137-1.99891 2.377305-14.173344-5.017841-24.570968-8.044998-25.34421-6.967395-1.768583-6.120121 8.225969-2.434887 7.444502z m132.668423-5.996731c4.622994 1.373737 9.073243 9.3447 10.043907 17.949064 0.090486 0.797919 6.037861-1.233895 6.095443-3.117643 0.370169-13.860757-11.50813-20.375724-14.617546-20.096041-7.156593 0.649852-5.14123 4.195244-1.521804 5.26462z m-68.012309 41.203877c16.575327-7.641925 22.374635 4.20347 16.649361 6.111895-5.832212 1.941329-5.881568-8.892272-16.649361-6.111895z" fill="#5B5C5C" p-id="13939"></path></svg>