<?xml version="1.0" standalone="no"?><!DOCTYPE svg PUBLIC "-//W3C//DTD SVG 1.1//EN" "http://www.w3.org/Graphics/SVG/1.1/DTD/svg11.dtd"><svg t="1551674195888" class="icon" style="" viewBox="0 0 1071 1024" version="1.1" xmlns="http://www.w3.org/2000/svg" p-id="6333" xmlns:xlink="http://www.w3.org/1999/xlink" width="133.875" height="128"><defs><style type="text/css"></style></defs><path d="M1067.946941 445.592046l-119.572868 529.76699 0.204088 1.678057-69.934141 46.033173-0.589588 0.929734H0.022676V420.398521h222.909405L435.138207 35.148482l0.226764-1.541998L520.197533 0.385499l139.913635 49.638728 0.158735 0.521558 1.201851 0.113382 38.164449 82.700976-0.272118 0.249441-67.64382 240.370264h362.392187l2.267644-0.498882 0.544235 0.498882 74.560134 65.98844z m-882.113515 67.666496h-92.973404v417.85876h92.973404V513.258542z m325.089443-46.441349l0.204088-0.385499h-3.129349l93.200169-334.47749-1.859468-4.535288-85.354121-28.98049-2.92526 1.02044-232.410834 419.808933v411.849503h583.328742l1.292557-0.884381 106.579268-463.415728H510.85484z" fill="#338CFA" p-id="6334"></path></svg>