<svg t="1571662765419" class="icon" viewBox="0 0 1024 1024" version="1.1" xmlns="http://www.w3.org/2000/svg" p-id="2483" width="32" height="32"><path d="M512 0c282.760705 0 512 229.239295 512 512s-229.239295 512-512 512S0 794.760705 0 512 229.239295 0 512 0z m-178.297229 770.256927c44.171285 0 79.959698-35.788413 79.959698-79.959698s-35.788413-79.959698-79.959698-79.959698-79.959698 35.788413-79.959698 79.959698 35.788413 79.959698 79.959698 79.959698z m271.798488-31.919396c0-176.685139-143.153652-319.838791-319.83879-319.83879-17.732997 0-31.919395 14.186398-31.919396 31.919395s14.186398 31.919395 31.919396 31.919395c141.219144 0 256 114.458438 256 256 0 17.732997 14.186398 31.919395 31.919395 31.919396s31.919395-14.186398 31.919395-31.919396z m159.919396 0c0-265.027708-214.730479-479.758186-479.758186-479.758186-17.732997 0-31.919395 14.186398-31.919396 31.919396s14.186398 31.919395 31.919396 31.919395c229.561713 0 415.919395 186.035264 415.919395 415.919395 0 17.732997 14.186398 31.919395 31.919395 31.919396s31.919395-14.186398 31.919396-31.919396z" fill="#83CC52" p-id="2484"></path></svg>
