<?xml version="1.0" standalone="no"?><!DOCTYPE svg PUBLIC "-//W3C//DTD SVG 1.1//EN" "http://www.w3.org/Graphics/SVG/1.1/DTD/svg11.dtd"><svg t="1556106712927" class="icon" style="" viewBox="0 0 1024 1024" version="1.1" xmlns="http://www.w3.org/2000/svg" p-id="1993" xmlns:xlink="http://www.w3.org/1999/xlink" width="32" height="32"><defs><style type="text/css"></style></defs><path d="M752.128 224.256c25.088 0 45.056-21.504 45.056-48.128v-128c0-26.624-19.968-48.128-45.056-48.128s-45.056 21.504-45.056 48.128v128c0 26.624 19.968 48.128 45.056 48.128zM271.872 224.256c25.088 0 45.056-21.504 45.056-48.128v-128C316.928 21.504 296.96 0 271.872 0s-45.056 21.504-45.056 48.128v128c0 26.624 20.48 48.128 45.056 48.128z" p-id="1994"></path><path d="M947.2 128h-90.112v48.128c0 61.952-47.104 112.128-104.96 112.128s-104.96-50.176-104.96-112.128V128H376.832v48.128c0 61.952-47.104 112.128-104.96 112.128s-104.96-50.176-104.96-112.128V128H76.8c-25.088 0-45.056 21.504-45.056 48.128v799.744c0 26.624 19.968 48.128 45.056 48.128h870.4c25.088 0 45.056-21.504 45.056-48.128V176.128c-0.512-26.624-20.48-48.128-45.056-48.128z m-45.056 799.744H121.856V384h779.776v543.744z" p-id="1995"></path><path d="M362.496 805.376c17.408 17.408 49.152 14.336 71.168-7.168l78.336-78.336 78.336 78.336c21.504 21.504 53.248 25.088 71.168 7.168 17.408-17.408 14.336-49.152-7.168-71.168l-78.336-78.336 78.336-78.336c21.504-21.504 25.088-53.248 7.168-71.168-17.408-17.408-49.152-14.336-71.168 7.168L512 592.384l-78.336-78.336c-21.504-21.504-53.248-25.088-71.168-7.168-17.408 17.408-14.336 49.152 7.168 71.168l78.336 78.336-78.336 78.336c-21.504 21.504-24.576 53.248-7.168 70.656z" p-id="1996"></path></svg>