<?xml version="1.0" standalone="no"?><!DOCTYPE svg PUBLIC "-//W3C//DTD SVG 1.1//EN" "http://www.w3.org/Graphics/SVG/1.1/DTD/svg11.dtd"><svg t="1551523167656" class="icon" style="" viewBox="0 0 1024 1024" version="1.1" xmlns="http://www.w3.org/2000/svg" p-id="2115" xmlns:xlink="http://www.w3.org/1999/xlink" width="200" height="200"><defs><style type="text/css"></style></defs><path d="M729.074456 961.131137 414.095691 961.131137c-20.687158 0-37.453007-17.068747-37.453007-38.10383 0-21.064758 16.738219-38.10383 37.453007-38.10383l314.978764 0c2.27174 0 5.650697-0.496304 9.219989-2.921539 3.382027-2.316765 5.111414-5.431709 5.815449-7.609305l135.962601-314.645167c8.654101-19.658735 6.788613-42.11519-4.676509-60.063981-11.520381-17.963117-30.962176-28.688389-52.001351-28.688389l-197.778482-0.054235c-16.57756 0-31.045063-10.988262-35.803437-27.103288-4.650927-16.08842 1.460258-33.459043 15.250332-42.694381 32.125675-21.588691 63.331397-140.283 37.642319-219.082694-14.439874-44.582381-37.642319-43.259246-47.674812-42.694381l-10.9504 0.096191c-14.656815 0-28.447912 5.804193-38.886659 16.363689-10.330276 10.588149-16.008602 24.6494-16.008602 39.647999l0 51.971675c0 60.561307-23.229051 117.509321-65.196885 160.28659-37.181831 37.993313-85.288478 60.835553-137.045259 65.49569l0 413.845493c0 19.798928-7.517207 38.325887-21.255093 52.27662-13.764492 14.034645-32.070416 21.782096-51.324946 21.782096L133.70263 961.13216c-18.685571 0-36.235272-7.444553-49.323359-20.871353-13.168927-13.425777-20.335141-31.293727-20.335141-50.207495L64.04413 475.819986c0-20.719904 7.895831-40.336684 22.309098-55.019081 14.520715-14.710027 33.640168-22.760376 54.029544-22.760376l166.493965 0c39.4812 0 76.472696-15.70161 104.434537-44.128033 27.744901-28.454052 43.185568-66.228377 43.185568-106.467847l0-51.971675c0-35.387975 13.43908-68.585051 37.965683-93.453439 24.580838-24.994254 57.056484-38.737256 91.670839-38.737256l8.760524 0c55.543014-3.226484 99.999528 31.196513 120.768551 94.77555 21.469987 66.186422 15.440667 166.007895-15.198144 236.770542l124.956943 0c46.37726 0.081864 89.265046 23.711028 114.520243 63.290465 25.339108 39.647999 29.313629 89.110527 10.600429 132.286885L813.227064 903.645888c-6.166443 15.909341-17.631566 30.631648-32.829709 41.301661C765.092787 955.560258 747.353774 961.131137 729.074456 961.131137zM138.733203 884.951107l113.465215 0L252.198417 474.123344 140.382772 474.123344 138.733203 884.951107z" p-id="2116"></path></svg>