<?xml version="1.0" standalone="no"?><!DOCTYPE svg PUBLIC "-//W3C//DTD SVG 1.1//EN" "http://www.w3.org/Graphics/SVG/1.1/DTD/svg11.dtd"><svg t="1551488962582" class="icon" style="" viewBox="0 0 1024 1024" version="1.1" xmlns="http://www.w3.org/2000/svg" p-id="15107" xmlns:xlink="http://www.w3.org/1999/xlink" width="200" height="200"><defs><style type="text/css"></style></defs><path d="M64.128 279.53l-0.128-0.149 0.128-0.064v-0.725l0.704 0.384L451.84 85.333l241.259 91.008L274.26 392.747v109.482L65.067 395.307l-0.96-115.776z m41.6 20.267l137.43 70.08 371.84-190.293-159.105-59.819L105.728 299.82z m860.843-17.962V398.74L515.328 625.515l-181.035-92.566V416.64l-0.128-0.17 0.128-0.065v-0.064l0.043 0.022 408.533-212.246 223.51 77.184 0.192-0.106v0.17l0.192 0.064-0.192 0.427z m-40.32 19.648l-178.944-60.907L374.1 436.629l141.227 71.979 410.944-207.125zM334.293 693.547V576.98l182.038 92.8 451.2-227.52v117.654l-451.2 226.709-182.038-93.077z m-60.032-30.678L66.091 556.46l-1.003-116.694L274.261 546.39v116.48zM64.128 591.744l451.243 229.995 451.2-227.499v117.653l-451.2 226.774-450.24-230.23-1.003-116.693z" fill="#2c2c2c" p-id="15108"></path></svg>