<?xml version="1.0" standalone="no"?><!DOCTYPE svg PUBLIC "-//W3C//DTD SVG 1.1//EN" "http://www.w3.org/Graphics/SVG/1.1/DTD/svg11.dtd"><svg t="1551674305674" class="icon" style="" viewBox="0 0 1024 1024" version="1.1" xmlns="http://www.w3.org/2000/svg" p-id="7484" xmlns:xlink="http://www.w3.org/1999/xlink" width="128" height="128"><defs><style type="text/css"></style></defs><path d="M866.69312 725.22752c-3.74784 0-7.46496 0.16384-11.1616 0.4096C828.928 639.35488 745.00096 576.3072 645.55008 576.3072a227.328 227.328 0 0 0-99.328 22.65088C507.21792 528.97792 429.80352 481.28 340.62336 481.28c-128.4096 0-232.52992 98.87744-232.52992 220.83584 0 10.1376 0.77824 20.1216 2.17088 29.9008C46.36672 751.0016 0.01024 807.65952 0.01024 874.60864 0 957.11232 70.43072 1024 157.30688 1024c1.82272 0 3.62496-0.07168 5.4272-0.12288h698.53184c1.80224 0.0512 3.61472 0.12288 5.4272 0.12288 86.8864 0 157.31712-66.88768 157.31712-149.39136 0-82.49344-70.43072-149.38112-157.31712-149.38112" fill="#DAE6EE" p-id="7485"></path><path d="M838.8608 422.4l-25.6-25.51808 27.15648-27.07456 25.6 25.52832z" fill="#FFA950" p-id="7486"></path><path d="M848.64 953.8048h51.2v-38.28736h-51.2z" fill="#0E5DA1" p-id="7487"></path><path d="M90.58304 885.39136a1.47456 1.47456 0 0 0-0.98304 1.3312v96.74752c0 0.7168 0.67584 1.39264 1.40288 1.39264h841.984a1.45408 1.45408 0 0 0 1.41312-1.39264v-96.74752a1.45408 1.45408 0 0 0-0.99328-1.3312l-418.6112 47.03232c-1.41312 0.14336-2.8672 0.16384-4.3008 0L90.58304 885.38112z m842.40384 137.76896H91.00288A39.80288 39.80288 0 0 1 51.2 983.4496v-96.73728a39.79264 39.79264 0 0 1 39.80288-39.69024c0.7168 0 1.4336 0.0512 2.1504 0.12288l419.4816 46.98112 418.2016-46.98112c0.7168-0.07168 1.4336-0.12288 2.1504-0.12288A39.79264 39.79264 0 0 1 972.8 886.72256v96.74752a39.80288 39.80288 0 0 1-39.81312 39.69024z" fill="#0E5DA1" p-id="7488"></path><path d="M758.5792 597.0944l-27.21792-27.00288 161.51552-161.9456c1.28-1.29024 1.20832-4.25984-0.98304-6.4512L747.8272 257.18784c-1.85344-1.87392-4.78208-2.33472-6.10304-0.9728L598.20032 399.93344l-27.21792-27.0336 143.50336-143.69792c15.88224-15.94368 44.1344-15.48288 60.5696 0.98304l144.0768 144.51712c16.88576 16.93696 17.31584 44.04224 0.9728 60.43648L758.5792 597.0944z" fill="#FFA950" p-id="7489"></path><path d="M731.27936 570.01984l-26.50112 26.5728-96.8192-97.11616a19.24096 19.24096 0 0 0-27.15648-0.07168 19.10784 19.10784 0 0 0-0.08192 27.06432l96.99328 97.28-39.69024 39.79264-164.78208-165.2736a19.22048 19.22048 0 0 0-27.16672-0.07168 19.0976 19.0976 0 0 0-0.07168 27.06432L610.95936 690.688l-39.6288 39.7312-96.8192-97.10592a19.24096 19.24096 0 0 0-27.14624-0.08192 19.0976 19.0976 0 0 0-0.08192 27.07456l96.9728 97.28-28.3136 28.39552c-1.9456 1.95584-3.82976 1.95584-5.77536 0L139.75552 414.74048a4.43392 4.43392 0 0 1 0-6.10304l215.32672-215.97184a3.9424 3.9424 0 0 1 2.88768-1.1776c0.77824 0 1.90464 0.18432 2.88768 1.1776L731.27936 563.9168a4.43392 4.43392 0 0 1 0 6.10304m27.22816-33.09568L388.08576 165.66272c-16.05632-16.09728-44.1856-16.09728-60.24192 0l-215.32672 215.9616a42.61888 42.61888 0 0 0 0 60.1088l370.42176 371.2512a42.19904 42.19904 0 0 0 30.12608 12.46208 42.21952 42.21952 0 0 0 30.11584-12.47232l215.33696-215.9616a42.62912 42.62912 0 0 0-0.01024-60.1088M732.98944 805.77536h90.51136V767.488h-90.51136zM799.232 705.8432l-13.80352-35.7376 84.46976-32.4096 13.79328 35.7376z" fill="#0E5DA1" p-id="7490"></path><path d="M185.61024 505.38496a19.1488 19.1488 0 0 1-13.54752-32.7168l248.64768-246.6304a19.2512 19.2512 0 0 1 27.136 0.07168c7.4752 7.49568 7.45472 19.6096-0.0512 27.07456L199.14752 499.8144a19.17952 19.17952 0 0 1-13.53728 5.57056" fill="#0E5DA1" p-id="7491"></path><path d="M848.56832 498.75968c-4.9152 0-9.8304-1.86368-13.58848-5.60128L658.5344 317.20448a19.07712 19.07712 0 0 1 0-27.05408 19.21024 19.21024 0 0 1 27.14624 0l176.47616 175.93344a19.11808 19.11808 0 0 1-13.57824 32.67584" fill="#FFA950" p-id="7492"></path><path d="M205.312 696.96512l-64-63.80544 27.136-27.07456 64 63.80544zM171.06944 814.72512h90.51136v-38.2976h-90.51136z" fill="#0E5DA1" p-id="7493"></path></svg>