<?xml version="1.0" standalone="no"?><!DOCTYPE svg PUBLIC "-//W3C//DTD SVG 1.1//EN" "http://www.w3.org/Graphics/SVG/1.1/DTD/svg11.dtd"><svg t="1557543138580" class="icon" style="" viewBox="0 0 1024 1024" version="1.1" xmlns="http://www.w3.org/2000/svg" p-id="2078" xmlns:xlink="http://www.w3.org/1999/xlink" width="32" height="32"><defs><style type="text/css"></style></defs><path d="M511.979 991.056c-300.633 0-426.734-107.535-426.734-328.527 0-183.079 142.992-374.138 316.335-434.413h220.799c173.35 60.275 316.335 251.333 316.335 434.413-0.001 220.992-126.102 328.527-426.737 328.527zM630.242 627.914v-0.073c19.951-0.105 36.089-16.314 36.089-36.281 0-19.987-16.137-36.177-36.089-36.303v-0.086h-73.195c0.143-0.816-0.097-1.542-0.025-2.359l85.783-87.691c13.993-15.764 6.873-28.799-7.269-43.092-14.231-14.365-37.489-17.378-48.989-4.859l-73.762 78.629-79.675-79.676c-10.082-10.073-29.696-6.791-43.81 7.324-14.126 14.134-17.397 33.764-7.324 43.837l81.486 81.467c-1.525 1.95-2.512 4.115-3.104 6.42h-66.225v0.068c-0.062 0-0.126 0-0.186 0-20.057 0-36.319 16.245-36.319 36.319 0 20.037 16.262 36.316 36.319 36.316 0.061 0 0.124-0.036 0.186-0.036v0.073h72.591v36.175h-72.591v0.106c-0.062 0-0.126 0-0.186 0-20.057 0-36.319 16.245-36.319 36.317 0 20.039 16.262 36.319 36.319 36.319 0.061 0 0.124-0.036 0.186-0.036v0.036h72.591v36.566h0.753c-0.569 2.836-0.895 5.798-0.895 8.83 0 25.075 20.322 45.398 45.396 45.398 25.076 0 45.398-20.323 45.398-45.398 0-3.031-0.33-5.994-0.896-8.83h0.425v-36.566l73.338-0.036c19.951-0.125 36.089-16.315 36.089-36.284 0-19.984-16.137-36.175-36.089-36.299v-0.125h-73.338v-36.174h73.337zM684.487 83.11l-7.632 9.54c-0.169 0.177-0.286 0.39-0.454 0.567l-64.548 80.686h-217.906l-64.426-80.545c-0.479-0.462-0.789-1.028-1.232-1.525l-6.978-8.724 1.231-2.466c-0.593-2.235-1.383-4.416-1.383-6.828 0-11.562 7.271-21.331 17.45-25.305l0.861-1.721c0 0 89.262-17.857 163.43-18.159 77.62-0.319 163.431 18.159 163.431 18.159l0.88 1.738c10.115 4.009 17.324 13.762 17.324 25.287 0 2.377-0.781 4.487-1.347 6.667l1.3 2.627z" fill="#fa4d50" p-id="2079"></path></svg>