<?xml version="1.0" standalone="no"?><!DOCTYPE svg PUBLIC "-//W3C//DTD SVG 1.1//EN" "http://www.w3.org/Graphics/SVG/1.1/DTD/svg11.dtd"><svg t="1551665449210" class="icon" style="" viewBox="0 0 1024 1024" version="1.1" xmlns="http://www.w3.org/2000/svg" p-id="2959" xmlns:xlink="http://www.w3.org/1999/xlink" width="200" height="200"><defs><style type="text/css"></style></defs><path d="M853.333333 34.133333H170.666667C133.12 34.133333 102.4 64.853333 102.4 102.4v682.666667c0 37.546667 30.72 68.266667 68.266667 68.266666h75.656533L189.44 936.465067A34.0992 34.0992 0 0 0 217.565867 989.866667c1.006933 0 1.9968-0.273067 3.003733-0.3584 1.1776 0.136533 2.321067 0.3584 3.549867 0.3584h581.6832l0.341333-0.034134 0.290133 0.034134c0.443733 0 0.887467-0.187733 1.3312-0.2048a33.706667 33.706667 0 0 0 10.632534-2.269867c0.887467-0.3584 1.706667-0.802133 2.542933-1.2288 1.570133-0.750933 3.2256-1.245867 4.7104-2.269867a34.082133 34.082133 0 0 0 8.891733-47.428266L777.6768 853.333333H853.333333c37.546667 0 68.266667-30.72 68.266667-68.266666V102.4c0-37.546667-30.72-68.266667-68.266667-68.266667zM204.8 682.666667a68.266667 68.266667 0 1 1 136.533333 0 68.266667 68.266667 0 0 1-136.533333 0z m536.900267 238.933333H282.299733l46.711467-68.266667h365.960533l46.728534 68.266667zM750.933333 750.933333a68.266667 68.266667 0 1 1 0-136.533333 68.266667 68.266667 0 0 1 0 136.533333z m68.266667-307.2c0 37.546667-30.72 68.266667-68.266667 68.266667H273.066667c-37.546667 0-68.266667-30.72-68.266667-68.266667v-68.266666c0-37.546667 30.72-68.266667 68.266667-68.266667h477.866666c37.546667 0 68.266667 30.72 68.266667 68.266667v68.266666z m-34.133333-238.933333H238.933333c-18.773333 0-34.133333-15.36-34.133333-34.133333s15.36-34.133333 34.133333-34.133334h546.133334c18.773333 0 34.133333 15.36 34.133333 34.133334s-15.36 34.133333-34.133333 34.133333z" fill="#040000" p-id="2960"></path></svg>