<?xml version="1.0" standalone="no"?><!DOCTYPE svg PUBLIC "-//W3C//DTD SVG 1.1//EN" "http://www.w3.org/Graphics/SVG/1.1/DTD/svg11.dtd"><svg t="1551488332362" class="icon" style="" viewBox="0 0 1024 1024" version="1.1" xmlns="http://www.w3.org/2000/svg" p-id="13131" xmlns:xlink="http://www.w3.org/1999/xlink" width="200" height="200"><defs><style type="text/css"></style></defs><path d="M735.45728 126.72 288.54272 126.72c-34.69312 0-62.9248 28.23168-62.9248 62.93504l0 644.70016c0 34.70336 28.23168 62.93504 62.9248 62.93504l446.9248 0c34.69312 0 62.9248-28.23168 62.9248-62.93504L798.39232 189.65504C798.38208 154.95168 770.1504 126.72 735.45728 126.72zM735.45728 869.12 288.54272 869.12c-19.16928 0-34.7648-15.59552-34.7648-34.77504L253.77792 189.65504c0-19.16928 15.58528-34.77504 34.7648-34.77504l446.9248 0c19.16928 0 34.7648 15.59552 34.7648 34.77504l0 644.70016C770.22208 853.52448 754.62656 869.12 735.45728 869.12zM718.08 225.28c0 7.76192-6.31808 14.08-14.08 14.08l-384 0c-7.76192 0-14.08-6.31808-14.08-14.08s6.31808-14.08 14.08-14.08l384 0C711.76192 211.2 718.08 217.51808 718.08 225.28zM361.37984 312.32c-7.76192 0-14.08-6.31808-14.08-14.08s6.31808-14.08 14.08-14.08l301.23008 0c7.76192 0 14.08 6.31808 14.08 14.08S670.37184 312.32 662.60992 312.32L361.37984 312.32zM718.08 371.2c0 7.76192-6.31808 14.08-14.08 14.08l-384 0c-7.76192 0-14.08-6.31808-14.08-14.08s6.31808-14.08 14.08-14.08l384 0C711.76192 357.12 718.08 363.43808 718.08 371.2zM718.08 439.04c0 7.76192-6.31808 14.08-14.08 14.08l-384 0c-7.76192 0-14.08-6.31808-14.08-14.08S312.23808 424.96 320 424.96l384 0C711.76192 424.96 718.08 431.27808 718.08 439.04zM718.08 512c0 7.76192-6.31808 14.08-14.08 14.08l-384 0c-7.76192 0-14.08-6.31808-14.08-14.08s6.31808-14.08 14.08-14.08l384 0C711.76192 497.92 718.08 504.23808 718.08 512zM718.08 584.96c0 7.76192-6.31808 14.08-14.08 14.08l-384 0c-7.76192 0-14.08-6.31808-14.08-14.08s6.31808-14.08 14.08-14.08l384 0C711.76192 570.88 718.08 577.19808 718.08 584.96zM718.08 646.4c0 7.76192-6.31808 14.08-14.08 14.08l-384 0c-7.76192 0-14.08-6.31808-14.08-14.08s6.31808-14.08 14.08-14.08l384 0C711.76192 632.32 718.08 638.63808 718.08 646.4zM718.08 719.36c0 7.76192-6.31808 14.08-14.08 14.08l-384 0c-7.76192 0-14.08-6.31808-14.08-14.08s6.31808-14.08 14.08-14.08l384 0C711.76192 705.28 718.08 711.59808 718.08 719.36zM718.08 792.32c0 7.76192-6.31808 14.08-14.08 14.08l-384 0c-7.76192 0-14.08-6.31808-14.08-14.08S312.23808 778.24 320 778.24l384 0C711.76192 778.24 718.08 784.55808 718.08 792.32z" p-id="13132"></path></svg>