<?xml version="1.0" standalone="no"?><!DOCTYPE svg PUBLIC "-//W3C//DTD SVG 1.1//EN" "http://www.w3.org/Graphics/SVG/1.1/DTD/svg11.dtd"><svg t="1556108957517" class="icon" style="" viewBox="0 0 1024 1024" version="1.1" xmlns="http://www.w3.org/2000/svg" p-id="5182" xmlns:xlink="http://www.w3.org/1999/xlink" width="32" height="32"><defs><style type="text/css"></style></defs><path d="M0 799.955911h447.806007v224.044089h128.105814v-224.044089h447.806008v-64.052907H0v64.052907zM959.947093 191.87655c0-106.096445-85.780105-191.87655-191.87655-191.87655H255.929457c-106.096445 0-191.87655 85.780105-191.87655 191.87655v479.973546h895.894186V191.87655z m-64.052907 415.920639H127.823643V191.87655c0-70.542849 57.280794-127.823643 128.105814-127.823643h511.858914c70.542849 0 128.105814 57.280794 128.105815 127.823643v415.920639z" p-id="5183" fill="#1296db"></path><path d="M447.806007 415.920639h95.938275l95.938275-159.991182h-95.938275l-95.938275 159.991182zM351.867732 255.929457l-95.938275 159.991182h95.938275l95.938275-159.991182h-95.938275z" p-id="5184" fill="#1296db"></path></svg>
