<?xml version="1.0" standalone="no"?><!DOCTYPE svg PUBLIC "-//W3C//DTD SVG 1.1//EN" "http://www.w3.org/Graphics/SVG/1.1/DTD/svg11.dtd"><svg t="1551487962177" class="icon" style="" viewBox="0 0 1024 1024" version="1.1" xmlns="http://www.w3.org/2000/svg" p-id="2080" xmlns:xlink="http://www.w3.org/1999/xlink" width="200" height="200"><defs><style type="text/css"></style></defs><path d="M757.76 993.28c-6.826667 0-10.24-3.413333-13.653333-6.826667l-160.426667-262.826666c-3.413333-6.826667-3.413333-10.24-3.413333-17.066667 0-3.413333 3.413333-6.826667 10.24-10.24 58.026667-30.72 92.16-88.746667 92.16-153.6 0-95.573333-75.093333-170.666667-170.666667-170.666667s-170.666667 75.093333-170.666667 170.666667c0 61.44 30.72 116.053333 81.92 146.773333 6.826667 3.413333 10.24 17.066667 6.826667 23.893334l-160.426667 262.826666c-3.413333 3.413333-6.826667 6.826667-10.24 6.826667-3.413333 0-10.24 0-13.653333-3.413333C92.16 887.466667 0 723.626667 0 542.72 0 259.413333 228.693333 30.72 512 30.72s512 228.693333 512 512c0 184.32-98.986667 354.986667-259.413333 443.733333l-6.826667 6.826667z m-136.533333-276.48l139.946666 232.106667c139.946667-85.333333 228.693333-242.346667 228.693334-406.186667 0-262.826667-215.04-477.866667-477.866667-477.866667S34.133333 279.893333 34.133333 542.72c0 163.84 81.92 310.613333 215.04 399.36l143.36-232.106667C337.92 672.426667 307.2 610.986667 307.2 542.72c0-112.64 92.16-204.8 204.8-204.8s204.8 92.16 204.8 204.8c0 71.68-37.546667 136.533333-95.573333 174.08z" fill="" p-id="2081"></path></svg>