<?xml version="1.0" standalone="no"?><!DOCTYPE svg PUBLIC "-//W3C//DTD SVG 1.1//EN" "http://www.w3.org/Graphics/SVG/1.1/DTD/svg11.dtd"><svg t="1551674118554" class="icon" style="" viewBox="0 0 1024 1024" version="1.1" xmlns="http://www.w3.org/2000/svg" p-id="3527" xmlns:xlink="http://www.w3.org/1999/xlink" width="128" height="128"><defs><style type="text/css"></style></defs><path d="M775.201477 217.049926h-101.703394a31.007132 31.007132 0 0 0-26.666134 15.503566A31.007132 31.007132 0 0 1 620.165816 248.057058h-217.049926a31.007132 31.007132 0 0 1-26.666134-15.503566 31.007132 31.007132 0 0 0-26.666133-15.503566H248.080229a124.028529 124.028529 0 0 0-124.028529 124.028529v279.06419a31.007132 31.007132 0 0 0 31.007132 31.007132h713.164042a31.007132 31.007132 0 0 0 31.007132-31.007132v-279.06419a124.028529 124.028529 0 0 0-124.028529-124.028529zM155.058832 775.178306v46.510699a62.014264 62.014264 0 0 0 62.014265 62.014264h589.135512a62.014264 62.014264 0 0 0 62.014265-62.014264V775.178306z" fill="#FFC824" p-id="3528"></path><path d="M961.24427 372.085587a31.007132 31.007132 0 0 1-31.007132-31.007132V248.057058a31.007132 31.007132 0 0 1 62.014265 0v93.021397a31.007132 31.007132 0 0 1-31.007133 31.007132zM62.037435 372.085587a31.007132 31.007132 0 0 1-31.007132-31.007132V248.057058a31.007132 31.007132 0 0 1 62.014265 0v93.021397a31.007132 31.007132 0 0 1-31.007133 31.007132zM806.208609 62.014264h-31.007132a31.007132 31.007132 0 0 0 0 62.014265h31.007132a31.007132 31.007132 0 0 1 31.007132 31.007132v434.099852h-250.847699l122.478172-122.478173a31.007132 31.007132 0 1 0-43.720057-43.720056L498.927929 589.135513H186.065964V155.035661a31.007132 31.007132 0 0 1 31.007133-31.007132h31.007132a31.007132 31.007132 0 0 0 0-62.014265H217.073097a93.021397 93.021397 0 0 0-93.021397 93.021397v666.653344a93.021397 93.021397 0 0 0 80.928615 93.021396 139.222024 139.222024 0 0 0 271.93255 0h69.455976a139.222024 139.222024 0 0 0 271.93255 0 93.021397 93.021397 0 0 0 80.928615-93.021396V155.035661a93.021397 93.021397 0 0 0-93.021397-93.021397zM341.101625 961.2211a77.827902 77.827902 0 0 1-71.006332-46.510699h142.012665A77.827902 77.827902 0 0 1 341.101625 961.2211z m341.078455 0a77.827902 77.827902 0 0 1-71.006333-46.510699h142.012666A77.827902 77.827902 0 0 1 682.18008 961.2211z m155.035661-139.532095a31.007132 31.007132 0 0 1-31.007132 31.007132H217.073097a31.007132 31.007132 0 0 1-31.007133-31.007132V651.149777h651.149777z" fill="#6B400D" p-id="3529"></path><path d="M589.158683 186.042793h-155.035661a93.021397 93.021397 0 0 1 0-186.042793h155.035661a93.021397 93.021397 0 0 1 0 186.042793z m-155.035661-124.028529a31.007132 31.007132 0 0 0 0 62.014265h155.035661a31.007132 31.007132 0 0 0 0-62.014265z" fill="#6B400D" p-id="3530"></path></svg>