<svg t="1573785782456" class="icon" viewBox="0 0 1024 1024" version="1.1" xmlns="http://www.w3.org/2000/svg" p-id="2408" width="32" height="32"><path d="M910.8 40H113.2c-31.5 0-57 25.5-57 57v830c0 31.5 25.5 57 57 57h797.5c31.5 0 57-25.5 57-57V97c0-31.5-25.5-57-56.9-57z m8.1 861c0 18.9-15.3 34.2-34.3 34.2H139.4c-18.9 0-34.3-15.3-34.3-34.2V123c0-18.9 15.3-34.2 34.3-34.2h745.3c18.9 0 34.3 15.3 34.3 34.2v778zM477.8 219H236.9c-18.9 0-34.2 15.3-34.2 34.2v240.9c0 18.9 15.3 34.2 34.2 34.2h240.9c18.9 0 34.2-15.3 34.2-34.2V253.2c0-18.9-15.3-34.2-34.2-34.2z m-14.6 236c0 13.5-10.9 24.4-24.4 24.4H276c-13.5 0-24.4-10.9-24.4-24.4V292.3c0-13.5 10.9-24.4 24.4-24.4h162.8c13.5 0 24.4 10.9 24.4 24.4V455z m122-138.3H796.8c13.5 0 24.4-10.9 24.4-24.4 0-13.5-10.9-24.4-24.4-24.4H585.2c-13.5 0-24.4 10.9-24.4 24.4 0 13.5 11 24.4 24.4 24.4z m211.6 113.9H585.2c-13.5 0-24.4 10.9-24.4 24.4 0 13.5 10.9 24.4 24.4 24.4H796.8c13.5 0 24.4-10.9 24.4-24.4 0-13.4-10.9-24.4-24.4-24.4z m0 325.5H227.1c-13.5 0-24.4 10.9-24.4 24.4 0 13.5 10.9 24.4 24.4 24.4h569.8c13.5 0 24.4-10.9 24.4-24.4-0.1-13.4-11-24.4-24.5-24.4zM227.2 642.2H797c13.5 0 24.4-10.9 24.4-24.4 0-13.5-10.9-24.4-24.4-24.4H227.2c-13.5 0-24.4 10.9-24.4 24.4 0 13.5 10.9 24.4 24.4 24.4z" p-id="2409"></path></svg>
