<svg t="1573785848514" class="icon" viewBox="0 0 1137 1024" version="1.1" xmlns="http://www.w3.org/2000/svg" p-id="3432" width="32" height="32"><path d="M1089.82 0H47.957C21.504 0 0 22.983 0 51.2v921.6c0 28.217 21.504 51.2 47.9 51.2h1041.92c26.454 0 47.958-22.983 47.958-51.2V51.2c0-28.217-21.504-51.2-47.958-51.2z m-37.376 210.944H596.992V91.193h455.452V211z m-785.294 0V91.193h79.645V211H267.15zM432.128 91.193h79.588V211H432.07V91.193z m-250.311 0V211H85.333V91.193h96.484zM85.333 932.807v-630.67h967.111v630.67H85.334z" p-id="3433"></path><path d="M422.343 560.526l-124.188-126.52a40.96 40.96 0 0 0-58.482 0 42.724 42.724 0 0 0 0 59.619l94.89 96.711-94.89 96.654a42.724 42.724 0 0 0 0 59.62 40.903 40.903 0 0 0 58.482 0l124.131-126.521a42.724 42.724 0 0 0 0-59.62h0.057z m219.022 198.429H475.82a41.813 41.813 0 0 0-41.415 42.211c0 23.268 18.545 42.098 41.358 42.098h165.546a41.756 41.756 0 0 0 41.359-42.098 41.756 41.756 0 0 0-41.359-42.211z" p-id="3434"></path></svg>
