<?xml version="1.0" standalone="no"?><!DOCTYPE svg PUBLIC "-//W3C//DTD SVG 1.1//EN" "http://www.w3.org/Graphics/SVG/1.1/DTD/svg11.dtd"><svg t="1551488124358" class="icon" style="" viewBox="0 0 1024 1024" version="1.1" xmlns="http://www.w3.org/2000/svg" p-id="5558" xmlns:xlink="http://www.w3.org/1999/xlink" width="200" height="200"><defs><style type="text/css"></style></defs><path d="M868.827 129.535l-351-65a31.995 31.995 0 0 0-11.622-0.005l-353 65C138.022 132.325 127 145.562 127 161v416c0 65.594 20.653 126.907 61.386 182.237 31.66 43.005 75.415 82.271 130.05 116.709 91.321 57.561 181.534 81.966 185.329 82.977a32.015 32.015 0 0 0 16.676-0.057c3.773-1.032 93.459-25.94 184.245-83.749 54.309-34.581 97.802-73.867 129.271-116.769C874.463 703.132 895 642.117 895 577V161c0-15.426-11.005-28.656-26.173-31.465zM831 577c0 93.712-53.642 175.581-159.436 243.333-67.554 43.263-136.299 66.941-159.676 74.29C460.605 878.857 191 785.953 191 577V187.646l320.983-59.104L831 187.618V577z" p-id="5559"></path><path d="M375.118 458.491c-12.497-12.497-32.758-12.497-45.255 0s-12.497 32.758 0 45.255l127.02 127.019c6.293 6.294 14.556 9.414 22.804 9.368 8.248 0.046 16.51-3.074 22.804-9.368L709.765 431.49c12.496-12.496 12.497-32.758 0-45.255s-32.759-12.497-45.255 0L480.127 563.501l-105.009-105.01z" p-id="5560"></path></svg>