<?xml version="1.0" standalone="no"?><!DOCTYPE svg PUBLIC "-//W3C//DTD SVG 1.1//EN" "http://www.w3.org/Graphics/SVG/1.1/DTD/svg11.dtd"><svg t="1557231578175" class="icon" style="" viewBox="0 0 1024 1024" version="1.1" xmlns="http://www.w3.org/2000/svg" p-id="2363" xmlns:xlink="http://www.w3.org/1999/xlink" width="32" height="32"><defs><style type="text/css"></style></defs><path d="M776 413.856l0-51.52-192.896 0 0 51.648 81.984 0 0 49.216c0 9.056-1.6 13.632-4.736 16.384s-7.968 4.192-14.336 4.32l0 15.328c16.576-0.544 28.672-4.096 36.384-10.816 7.648-6.656 11.52-16.896 11.52-30.656l0-43.744 82.08 0L776 413.856 776 413.856 776 413.856zM748.192 397.92l-137.248 0 0-19.52 137.248 0L748.192 397.92 748.192 397.92 748.192 397.92zM748.192 397.92" p-id="2364"></path><path d="M694.016 323.232l-28.96 0 0 12.128-88.992 0 0 16.064 206.976 0L783.04 335.36l-88.992 0L694.016 323.232 694.016 323.232zM694.016 323.232" p-id="2365"></path><path d="M576.064 498.752l16.416 0c35.072-30.56 44.192-74.144 44.192-74.144l-31.648 0C601.216 455.424 588.224 481.408 576.064 498.752L576.064 498.752 576.064 498.752zM576.064 498.752" p-id="2366"></path><path d="M722.4 424.608c0 0 9.152 43.584 44.192 74.144l16.416 0c-12.128-17.344-25.12-43.328-28.992-74.144L722.4 424.608 722.4 424.608 722.4 424.608zM722.4 424.608" p-id="2367"></path><path d="M813.408 498.752l16.448 0c35.072-30.56 44.192-74.144 44.192-74.144l-31.648 0C838.528 455.424 825.568 481.408 813.408 498.752L813.408 498.752 813.408 498.752zM813.408 498.752" p-id="2368"></path><path d="M959.744 424.608c0 0 9.152 43.584 44.192 74.144l16.448 0c-12.16-17.344-25.152-43.328-28.992-74.144L959.744 424.608 959.744 424.608 959.744 424.608zM959.744 424.608" p-id="2369"></path><path d="M886.208 335.36l5.632-12.224-28.992 0-5.696 12.224-43.776 0 0 16.064 36.256 0-29.184 62.528 83.968 0 0 49.216c0 9.504-1.568 13.632-4.704 16.384-3.168 2.752-7.968 4.192-14.336 4.32l0 15.328c16.544-0.544 28.672-4.096 36.384-10.816 7.68-6.656 11.52-16.928 11.52-30.656l0-43.776 80 0 0-16.064-80 0 0-34.56-28.832 0 0 34.56-47.104 0 21.44-46.464 141.6 0 0-16.064L886.208 335.36 886.208 335.36 886.208 335.36zM886.208 335.36" p-id="2370"></path><path d="M455.2 367.872c-36.64-32.128-90.464-48.384-159.872-48.384L213.504 319.488l0 384.992 81.824 0c69.408 0 123.328-16.288 159.872-48.32 36.416-31.872 55.616-81.696 55.616-144.096C510.784 449.6 491.584 399.648 455.2 367.872M413.184 614.912c-24.448 22.336-61.696 33.728-110.72 33.728L274.016 648.64l0-272.992 28.448 0c49.024 0 86.304 11.36 110.72 33.6 24 21.824 36.64 57.344 36.64 102.88C449.792 557.536 437.184 593.024 413.184 614.912L413.184 614.912 413.184 614.912zM413.184 614.912" p-id="2371"></path><path d="M107.648 551.776c0 25.344-1.696 43.2-5.056 53.088-3.136 9.376-8.608 17.248-16.16 23.232-9.152 7.008-20.352 12.16-33.216 15.456-12.576 3.2-28.352 4.864-46.784 5.024L0 648.576l0 55.776 6.144 0c1.408 0.096 2.528 0 2.976 0 53.44 0 95.328-11.36 121.248-33.568 26.528-22.784 39.968-57.216 39.968-102.624L170.336 319.584 107.68 319.584 107.648 551.776 107.648 551.776 107.648 551.776zM107.648 551.776" p-id="2372"></path><path d="M778.304 547.744c-42.4 0-76.896 34.464-76.896 76.864s34.496 76.896 76.896 76.896 76.896-34.496 76.896-76.896S820.704 547.744 778.304 547.744M778.304 678.464c-29.664 0-53.824-24.192-53.824-53.856 0-29.696 24.128-53.856 53.824-53.856 29.696 0 53.824 24.16 53.824 53.856S808 678.464 778.304 678.464L778.304 678.464 778.304 678.464zM778.304 678.464" p-id="2373"></path><path d="M527.808 644.512c-8.128 0-14.72 6.592-14.72 14.752 0 8.128 6.592 14.72 14.72 14.72s14.72-6.592 14.72-14.72C542.56 651.104 535.936 644.512 527.808 644.512L527.808 644.512 527.808 644.512zM527.808 644.512" p-id="2374"></path><path d="M1000 552.256l-51.84 97.152-51.84-97.152-23.968 0 0 144.8 22.72 0 0-97.76 53.056 95.776 53.056-95.808 0 97.792L1024 697.056l0-144.832L1000 552.256 1000 552.256zM1000 552.256" p-id="2375"></path><path d="M683.68 664.928c-9.856 8.672-22.496 13.536-35.616 13.536-29.664 0-53.824-24.128-53.824-53.856 0-29.664 24.128-53.792 53.824-53.792 13.12 0 25.792 4.768 35.648 13.536l1.792 1.536 16.32-16.288-2.016-1.824c-14.176-12.928-32.576-20.064-51.744-20.064-42.4 0-76.864 34.496-76.864 76.864 0 42.432 34.496 76.864 76.864 76.864 19.168 0 37.568-7.136 51.776-20.032l1.92-1.824-16.256-16.288L683.68 664.928 683.68 664.928 683.68 664.928zM683.68 664.928" p-id="2376"></path></svg>